<?xml version="1.0" encoding="UTF-8" standalone="no"?>
<!-- Created with Inkscape (http://www.inkscape.org/) -->

<svg
   version="1.1"
   id="svg1"
   width="307.20001"
   height="307.20001"
   viewBox="0 0 307.20001 307.20001"
   xmlns="http://www.w3.org/2000/svg"
   xmlns:svg="http://www.w3.org/2000/svg">
  <defs
     id="defs1" />
  <g
     id="g1">
    <path
       style="fill:#ffffff;fill-opacity:1;stroke-width:1.54454"
       d="m 150.17286,297.55215 -0.42358,-2.9934 0.16192,-0.15747 0.1619,-0.15746 0.36057,0.49425 0.36056,0.49425 0.78825,1.35033 0.78824,1.35032 1.17156,0.72261 1.17155,0.72263 1.35418,0.0196 1.35416,0.0196 0.68692,-0.50213 0.68693,-0.50214 0.44625,-0.89701 0.44625,-0.89702 -0.16525,-0.88086 -0.16525,-0.88085 -0.51149,-0.65027 -0.51151,-0.65025 -3.10572,-2.02818 -3.1057,-2.02817 -0.42305,-0.47932 -0.42305,-0.47933 -0.38011,-0.90974 -0.38012,-0.90975 0.006,-0.93466 0.006,-0.93467 0.45366,-0.99873 0.45367,-0.99873 0.78422,-0.65987 0.78422,-0.65988 0.91904,-0.25525 0.91907,-0.25523 0.8474,-0.001 0.84741,-10e-4 1.70497,0.54913 1.70498,0.54912 0.46157,-0.6109 0.46158,-0.61091 0.22825,0.24712 0.22826,0.24713 0.2636,2.70567 0.26363,2.70566 -0.12249,0.19808 -0.12248,0.19807 h -0.21338 -0.21338 l -0.30422,-0.92673 -0.30423,-0.92672 -0.56404,-0.89673 -0.56405,-0.89673 -1.29999,-0.64781 -1.30137,-0.64791 h -0.90345 -0.90343 l -0.82274,0.55604 -0.82271,0.55603 -0.19926,0.74138 -0.19927,0.74138 0.24977,0.7624 0.24977,0.7624 0.67389,0.62735 0.67389,0.62736 2.59483,1.6613 2.59483,1.66127 0.82425,0.77943 0.82424,0.77942 0.38846,0.74138 0.38843,0.74138 -0.0123,1.38249 -0.0124,1.38249 -0.39046,0.75506 -0.39046,0.75507 -0.99312,0.85006 -0.99311,0.85007 -0.95726,0.28681 -0.95728,0.28681 h -1.24271 -1.24272 l -1.6834,-0.51996 -1.68341,-0.51994 -0.42103,0.51994 -0.42104,0.51996 h -0.2297 -0.22972 z m 2.0743,-23.59563 -1.60632,-0.087 -3.45978,-0.26851 -3.45977,-0.2685 -3.53362,-0.49001 -3.5336,-0.49 -3.50951,-0.71099 -3.50949,-0.71098 -2.57605,-0.65317 -2.57605,-0.65317 -3.60211,-1.11599 -3.60212,-1.11601 -4.07759,-1.61359 -4.07761,-1.61358 -4.20115,-2.03391 -4.20115,-2.0339 -3.319096,-1.91567 -3.319096,-1.91566 -2.856646,-1.89328 -2.856661,-1.8933 -3.127326,-2.34771 -3.127332,-2.3477 -3.05325,-2.63777 -3.053266,-2.63778 -2.447542,-2.33453 -2.447543,-2.33451 -2.42601,1.5743 -2.426005,1.57431 h -0.138623 -0.138622 l 1.886532,-2.34551 1.886533,-2.34551 -1.836757,-2.04099 -1.83677,-2.04093 -1.843125,-2.23254 -1.843125,-2.23254 -2.283838,-3.1475 -2.28384,-3.1475 -1.688102,-2.65158 -1.688104,-2.65157 -1.564818,-2.7184 -1.564819,-2.71839 -2.144288,-4.44828 -2.144287,-4.44828 -1.489133,-3.83046 -1.489133,-3.83047 -1.026913,-3.21264 -1.026912,-3.21265 -0.965405,-3.83046 -0.965405,-3.83047 -0.637048,-3.45977 -0.637048,-3.45977 -0.480557,-3.7069 -0.480558,-3.7069 -0.293743,-5.68392 -0.293742,-5.68391 0.283309,-5.43678 0.283307,-5.43678 0.495451,-3.95403 0.49545,-3.95402 0.479891,-2.59483 0.47989,-2.59483 0.641359,-2.84196 0.641359,-2.84196 0.767981,-2.71839 0.767983,-2.71839 1.168942,-3.45978 1.168942,-3.45977 1.368105,-3.33621 1.368106,-3.33621 1.344411,-2.84196 1.34441,-2.84195 1.933109,-3.451784 1.933106,-3.45178 1.734256,-2.726387 1.734257,-2.726386 1.595545,-2.22414 1.595544,-2.22414 1.633662,-2.100577 1.633662,-2.100577 2.205692,-2.572177 2.205692,-2.57218 2.430256,-2.523174 2.430243,-2.523174 -0.0062,-0.217871 -0.0062,-0.21787 -1.211384,-1.603717 -1.211399,-1.603716 0.07954,-0.07954 0.07954,-0.07954 1.756963,1.281925 1.756978,1.281925 0.964334,-0.834293 0.964335,-0.834292 2.803297,-2.434172 2.803281,-2.43417 3.212653,-2.404639 3.212647,-2.40464 1.977013,-1.328255 1.977013,-1.328257 3.459774,-2.074591 3.459773,-2.074591 4.695405,-2.30464 4.6954,-2.30464 4.07761,-1.599591 4.07759,-1.599591 3.1011,-1.000843 3.1011,-1.000841 3.32419,-0.869067 3.3242,-0.869066 3.08908,-0.619769 3.08908,-0.619767 3.33621,-0.485187 3.33621,-0.485189 3.08909,-0.324664 3.08908,-0.324666 8.27875,0.01158 8.27874,0.01159 3.79015,0.42732 3.79014,0.427321 4.34691,0.732744 4.34689,0.732743 4.00868,0.990246 4.00867,0.990246 3.54682,1.135826 3.54683,1.135826 4.07759,1.599459 4.07759,1.599458 4.6954,2.313045 4.69541,2.313046 3.92913,2.365891 3.92913,2.365892 2.86685,2.018001 2.86686,2.018 2.59483,2.027981 2.59483,2.02798 3.08908,2.746974 3.08908,2.746975 0.12527,0.0031 0.12526,0.0031 2.2217,-1.586488 2.2217,-1.586488 0.0914,0.09137 0.0914,0.09137 -1.64727,2.244288 -1.64725,2.244289 2.83541,3.019505 2.83541,3.019505 2.16622,2.59483 2.16621,2.59483 2.01401,2.718393 2.014,2.718393 1.72844,2.59483 1.72843,2.59483 1.68359,2.841957 1.68358,2.841957 2.04247,4.077586 2.04245,4.07759 1.40211,3.33621 1.40209,3.33621 1.57535,4.69541 1.57534,4.69541 0.86878,3.45977 0.86875,3.45977 0.5072,2.46975 0.5072,2.46975 0.48315,3.10826 0.48316,3.10827 0.35957,3.81281 0.35955,3.81278 0.16558,4.57185 0.16556,4.57184 -0.2875,4.81897 -0.28752,4.81897 -0.47543,3.83046 -0.47542,3.83046 -0.63991,3.45978 -0.63988,3.45977 -1.07068,4.20115 -1.07066,4.20116 -0.91398,2.84195 -0.914,2.84196 -1.60515,4.07759 -1.60517,4.07759 -1.90908,3.95403 -1.90907,3.95402 -1.68256,2.96552 -1.68256,2.96552 -1.5061,2.34771 -1.5061,2.3477 -1.83116,2.59483 -1.83118,2.59483 -1.75861,2.22414 -1.7586,2.22414 -2.66659,3.03473 -2.66659,3.03472 1.5356,1.90782 1.53561,1.9078 0.38944,0.46843 0.38943,0.46843 -0.52992,-0.27781 -0.52992,-0.2778 -1.86806,-1.23707 -1.86806,-1.23708 -0.22895,-0.0657 -0.22896,-0.0656 -3.87323,3.57446 -3.87325,3.57444 -3.50846,2.81103 -3.50845,2.81102 -4.57185,3.04127 -4.57184,3.04125 -2.96552,1.67695 -2.96552,1.67696 -3.95403,1.89876 -3.95402,1.89878 -3.11218,1.25904 -3.11217,1.25905 -3.68381,1.23001 -3.68381,1.22999 -3.33621,0.87596 -3.33621,0.87597 -3.06935,0.63445 -3.06934,0.63447 -3.10882,0.47638 -3.10882,0.4764 -3.83047,0.36461 -3.83046,0.3646 -5.31323,0.1058 -5.31322,0.1058 z m 2.59074,-2.26301 -0.11522,-0.6796 -0.38929,-2.96113 -0.38927,-2.96112 -0.24621,-0.15214 -0.24622,-0.15214 -3.28225,-0.1574 -3.28224,-0.15742 -3.93063,-0.50394 -3.93062,-0.50394 -3.7069,-0.7422 -3.7069,-0.74219 -3.61164,-0.97964 -3.61163,-0.97965 -2.93722,-1.01144 -2.93723,-1.01146 -3.08908,-1.24754 -3.08908,-1.24754 -3.70692,-1.80532 -3.7069,-1.80534 -3.45977,-2.02364 -3.459771,-2.02365 -3.089083,-2.09999 -3.089084,-2.09999 -2.573855,-2.00809 -2.573855,-2.0081 -2.986501,-2.62617 -2.986495,-2.62617 -2.852815,-2.93418 -2.85283,-2.93418 -2.216016,-2.59483 -2.216033,-2.59483 -2.130048,-2.84196 -2.130049,-2.84195 -2.090964,-3.21265 -2.090963,-3.21265 -1.894285,-3.37064 -1.894286,-3.37065 -1.320799,-2.81097 -1.320798,-2.81098 -1.494639,-3.70344 -1.494638,-3.70345 -1.137453,-3.54683 -1.137453,-3.5468 -0.981148,-3.99056 -0.98115,-3.99054 -0.607177,-3.61015 -0.607175,-3.61016 -0.378888,-3.9272 -0.378887,-3.92722 -0.157304,-2.90517 -0.157304,-2.90516 -0.531566,-0.10858 -0.531568,-0.10858 -2.100577,-0.2664 -2.100576,-0.26639 -0.926725,-0.13963 -0.926725,-0.13962 v 2.95135 2.95136 l 0.252932,3.18676 0.252933,3.18674 0.380226,2.96552 0.380226,2.96552 0.614204,3.33621 0.614204,3.33621 0.984293,3.95403 0.984295,3.95402 1.579406,4.70846 1.579409,4.70846 1.526478,3.57029 1.52648,3.57028 1.939198,3.83046 1.9392,3.83047 1.691642,2.84195 1.691642,2.84196 1.815112,2.71839 1.81511,2.7184 2.041947,2.71839 2.041948,2.71839 2.052736,2.47127 2.052734,2.47127 4.706613,4.7172 4.706604,4.7172 2.841957,2.35031 2.841957,2.35032 2.471273,1.85581 2.471266,1.85583 3.583337,2.35564 3.583337,2.35564 2.453983,1.40691 2.453981,1.40691 3.43941,1.72298 3.4394,1.72298 3.86812,1.61606 3.86812,1.61603 4.32472,1.4358 4.32472,1.43579 4.03533,1.01149 4.03534,1.01148 4.2434,0.72903 4.24341,0.72901 2.34771,0.27601 2.3477,0.27601 2.47127,0.19655 2.47126,0.19655 2.27975,0.0346 2.27974,0.0346 z m 10.90355,0.42666 3.18676,-0.25293 2.96552,-0.38022 2.96552,-0.38022 3.33622,-0.60515 3.33621,-0.60514 4.07759,-1.00769 4.07759,-1.00769 4.32471,-1.442 4.32472,-1.44198 3.86954,-1.6121 3.86955,-1.6121 3.29712,-1.64998 3.29714,-1.64997 2.59483,-1.4881 2.59483,-1.48811 3.51441,-2.29886 3.51444,-2.29887 3.00705,-2.2707 3.00704,-2.27073 2.62221,-2.24584 2.62222,-2.24582 3.43083,-3.34272 3.43083,-3.34271 3.02399,-3.51181 3.02398,-3.51181 2.13572,-2.84342 2.13571,-2.84342 2.31268,-3.52984 2.31265,-3.52983 1.60755,-2.84196 1.60753,-2.84196 1.52616,-3.04833 1.52614,-3.04834 1.61624,-3.87121 1.61623,-3.87121 1.44124,-4.32472 1.44123,-4.32471 0.9843,-3.95403 0.98432,-3.95403 0.63714,-3.45977 0.63714,-3.45977 0.36916,-2.96552 0.36916,-2.96552 0.25016,-2.96552 0.25014,-2.96552 0.003,-3.0273 0.003,-3.02731 h -0.44274 -0.44273 l -2.95098,0.387 -2.95097,0.38702 -0.0669,0.0669 -0.0669,0.0669 -0.2443,4.30334 -0.2443,4.30334 -0.51461,4.07759 -0.5146,4.07759 -0.60804,3.08908 -0.60804,3.08908 -0.96132,3.7069 -0.96131,3.7069 -0.97709,2.96552 -0.97709,2.96553 -1.31294,3.33621 -1.31292,3.33621 -2.66619,5.31322 -2.66619,5.31322 -2.20847,3.52503 -2.20848,3.52503 -2.18301,2.9945 -2.18301,2.99449 -2.5902,3.11842 -2.59021,3.11841 -4.08221,4.08851 -4.08222,4.08851 -3.11841,2.58391 -3.11842,2.58391 -2.97655,2.1699 -2.97654,2.16989 -3.29586,2.06462 -3.29585,2.06464 -3.08908,1.64379 -3.08908,1.64381 -2.94883,1.37007 -2.94882,1.37007 -2.48796,0.99164 -2.48797,0.99165 -3.61509,1.2077 -3.61509,1.20773 -3.92227,0.98162 -3.92227,0.98161 -3.33621,0.61073 -3.33621,0.61071 -3.21265,0.38401 -3.21265,0.384 -4.20115,0.25025 -4.20115,0.25026 -1.00663,0.003 -1.00662,0.003 -0.41436,3.16376 -0.41435,3.16376 v 0.54314 0.54314 h 3.30031 3.30033 z m -10.29027,-31.37928 0.26221,-25.33048 0.23706,-22.36497 0.23707,-22.36496 0.14102,-8.64943 0.14117,-8.64943 -7.16144,7.16667 -7.16144,7.16667 1.32894,10.37932 1.32892,10.37932 4.96137,39.04601 4.96135,39.04602 0.18086,1.11207 0.18087,1.11207 0.0499,-1.3592 0.0499,-1.35919 z m -1.8225,21.5618 -0.14472,-0.92672 -0.98215,-7.78449 -0.98214,-7.78449 -1.62692,-12.72703 -1.62692,-12.72702 -0.17172,-0.14132 -0.17171,-0.14133 -3.97429,-0.77218 -3.97428,-0.77218 -3.41286,-1.12305 -3.41287,-1.12306 -2.85972,-1.26861 -2.8597,-1.26863 -2.48017,-1.36862 -2.48016,-1.36862 -2.22414,-1.48584 -2.22414,-1.48584 -0.98851,-0.75687 -0.9885,-0.75687 -1.60633,-1.34344 -1.60632,-1.34345 -1.40654,-1.35592 -1.40652,-1.35594 -0.4841,0.34865 -0.48412,0.34865 -14.03372,13.34484 -14.033743,13.34484 -1.003813,0.92752 -1.003813,0.92752 2.347703,2.26013 2.347704,2.26013 2.347709,2.02179 2.347704,2.02179 2.59483,1.9833 2.59483,1.9833 2.96552,1.97307 2.96552,1.97306 1.977009,1.19333 1.97701,1.19331 3.7069,1.91684 3.70692,1.91684 3.58333,1.52761 3.58334,1.5276 4.69541,1.56241 4.6954,1.56241 3.70691,0.90213 3.7069,0.90212 4.20115,0.70043 4.20115,0.70043 3.08909,0.27192 3.08908,0.2719 0.86494,0.0806 0.86495,0.0806 1.31913,0.0395 1.31913,0.0395 z m -5.43135,-7.04311 0.1629,-2.03879 0.15183,-1.60632 0.15183,-1.60633 0.24712,0.0706 0.24713,0.0706 -0.0425,1.53568 -0.0425,1.53567 -0.16499,2.0388 -0.165,2.0388 h -0.35429 -0.35429 z m -7.67081,0.12357 0.17173,-1.17385 0.39945,-2.45198 0.39945,-2.45199 0.34575,-0.11399 0.34574,-0.11399 -0.14596,0.95961 -0.14596,0.9596 -0.41937,2.78017 -0.41939,2.78018 h -0.35154 -0.35155 z m -7.59824,-0.43428 -0.12542,-0.12542 0.78472,-3.38256 0.78474,-3.38258 0.28796,-0.0961 0.28797,-0.0959 v 0.35807 0.35807 l -0.6281,2.81338 -0.62809,2.81338 -0.1299,0.43248 -0.12989,0.43247 h -0.18929 -0.18928 z m -7.52584,-2.28412 0.12542,-0.43247 0.91149,-2.96552 0.9115,-2.96552 0.21126,-0.23064 0.21128,-0.23065 0.17188,0.17186 0.17186,0.17186 -0.39782,1.29442 -0.39782,1.29442 -0.664,2.16236 -0.664,2.16236 h -0.35821 -0.35823 z m -7.12488,-2.26921 -0.16902,-0.27347 1.28261,-3.26961 1.2826,-3.26961 0.0982,-0.10704 0.0982,-0.10704 0.24307,0.24305 0.24306,0.24307 -1.27387,3.20024 -1.27388,3.20023 -0.18105,0.20688 -0.18105,0.20687 z m -7.23193,-3.29114 0.12156,-0.3089 1.42436,-3.02731 1.42436,-3.0273 h 0.33402 0.33402 l 0.005,0.18535 0.005,0.18534 -1.53544,3.15087 -1.53545,3.15086 h -0.34848 -0.34846 z m -6.62211,-3.44448 -0.1455,-0.37897 1.70274,-2.92466 1.70273,-2.92467 0.28752,-0.0958 0.28751,-0.0958 v 0.30659 0.30659 l -1.52151,2.61773 -1.52153,2.61774 -0.3233,0.47515 -0.32331,0.47516 z m -6.647952,-4.12255 -0.132831,-0.21502 2.007209,-2.93585 2.007204,-2.93585 0.0922,-0.10703 0.0922,-0.10704 0.24275,0.24274 0.24276,0.24276 -2.03854,3.00608 -2.038551,3.00609 -0.170749,0.009 -0.170764,0.009 z m -6.321578,-4.64974 v -0.20557 l 2.230581,-2.77806 2.230566,-2.77806 h 0.240701 0.240686 v 0.25672 0.2567 l -2.125336,2.64703 -2.125336,2.64702 -0.345931,0.0799 -0.345931,0.0798 z m -5.778671,-4.97371 -0.123872,-0.20053 2.395275,-2.62066 2.39526,-2.62065 0.308909,-0.0209 0.308908,-0.0208 v 0.22164 0.22163 l -2.399415,2.62033 -2.399399,2.62031 H 85.98015 85.799315 Z m 83.376461,32.69822 3.33621,-0.37582 3.58333,-0.622 3.58334,-0.622 3.51546,-0.86411 3.51545,-0.86411 3.52766,-1.13062 3.52765,-1.13063 3.45978,-1.36434 3.45977,-1.36434 3.7069,-1.78401 3.7069,-1.78399 3.33621,-1.92387 3.33621,-1.92385 3.59254,-2.43477 3.59256,-2.43478 2.92114,-2.33418 2.92113,-2.33415 3.07395,-2.77261 3.07395,-2.77262 -0.0732,-0.31141 -0.0732,-0.31141 -15.1285,-13.97446 -15.12847,-13.97444 -0.44193,-0.2365 -0.44191,-0.23652 -1.85203,1.5953 -1.85203,1.59529 -2.47126,1.81459 -2.47127,1.81459 -2.22474,1.35273 -2.22474,1.35274 -2.84136,1.42513 -2.84135,1.42512 -2.74855,1.06241 -2.74854,1.06241 -2.56468,0.73893 -2.56468,0.73891 -2.35746,0.50285 -2.35748,0.50286 -2.93947,0.38533 -2.93946,0.38533 -0.0534,0.0575 -0.0534,0.0575 -2.62644,20.75864 -2.62643,20.75864 -0.13113,0.59542 -0.13113,0.59543 4.40109,-0.16012 4.4011,-0.16012 z m -5.0538,-7.10543 -0.15338,-1.79167 -0.053,-1.78252 -0.053,-1.78253 0.24712,-0.0709 0.24713,-0.0709 0.16737,1.97702 0.16735,1.97701 0.14333,1.66811 0.14334,1.6681 h -0.35134 -0.35132 z m 7.41346,-1.72989 -0.41762,-2.78017 -0.14287,-0.95959 -0.14287,-0.95961 0.34575,0.11491 0.34576,0.11492 0.53926,3.31597 0.53928,3.31598 0.0168,0.30891 0.0168,0.3089 h -0.34125 -0.34124 z m 7.79936,0.37069 -0.23934,-0.92672 -0.5597,-2.5261 -0.55971,-2.5261 0.17171,-0.1717 0.17171,-0.1717 0.15859,0.15861 0.15861,0.1586 0.70073,2.90988 0.70071,2.90989 0.006,0.55603 0.006,0.55604 h -0.23761 -0.2376 z m 6.94536,-3.45977 -0.75488,-2.40948 -0.3063,-1.05188 -0.30628,-1.05188 0.16727,-0.16728 0.16727,-0.16727 0.21116,0.23065 0.21114,0.23064 0.92876,3.08909 0.92878,3.08908 0.118,0.30891 0.11801,0.30891 h -0.36407 -0.36406 z m 7.87483,-0.58022 -0.25138,-0.59363 -1.11919,-2.83007 -1.11919,-2.83006 0.24254,-0.24254 0.24254,-0.24254 0.0876,0.10704 0.0874,0.10704 1.30909,3.2906 1.30909,3.29058 -0.26856,0.26856 -0.26855,0.26855 z m 5.72169,-5.78581 -1.53995,-3.09158 v -0.24463 -0.24461 h 0.32214 0.32213 l 1.46954,3.12747 1.46952,3.12746 0.0823,0.20875 0.0823,0.20874 h -0.33407 -0.33408 z m 6.65486,-3.42224 -1.76952,-3.07365 v -0.27235 -0.27235 h 0.2327 0.23272 l 1.4071,2.40948 1.40711,2.40949 0.38904,0.67717 0.38906,0.67718 -0.25935,0.25934 -0.25936,0.25936 z m 6.20056,-4.17141 -2.03853,-3.00608 0.24274,-0.24275 0.24275,-0.24274 0.0876,0.10704 0.0876,0.10703 2.01063,2.93777 2.01064,2.93776 -0.13175,0.2131 -0.13175,0.2131 -0.17076,-0.009 -0.17075,-0.009 z m 6.05233,-4.38412 -2.16033,-2.71303 v -0.25249 -0.25248 h 0.24694 0.24694 l 2.21838,2.78017 2.21838,2.78018 0.006,0.18534 0.006,0.18535 h -0.31094 -0.31093 z m 5.68313,-4.80486 -2.40667,-2.57724 v -0.26566 -0.26565 l 0.3089,0.0195 0.30891,0.0195 2.34771,2.59086 2.3477,2.59085 -0.0433,0.16369 -0.0433,0.16369 -0.20669,0.0689 -0.20669,0.0689 z m 13.51652,-0.14782 2.4548,-2.7217 2.31732,-2.89967 2.31734,-2.89966 2.804,-4.20116 2.80401,-4.20115 1.79519,-3.21265 1.79519,-3.21264 1.46602,-3.08909 1.466,-3.08908 1.31703,-3.25257 1.31703,-3.25258 1.14582,-3.54341 1.14583,-3.54341 1.08395,-4.44828 1.08396,-4.44828 0.49416,-2.96552 0.49416,-2.96552 0.37923,-3.33621 0.37922,-3.33621 0.16534,-3.66366 0.16533,-3.66369 -0.8424,0.14241 -0.84237,0.14241 -20.46832,2.59461 -20.46831,2.59461 h -0.17855 -0.17855 l -0.30406,2.40949 -0.30407,2.40948 -0.63369,2.84196 -0.63368,2.84196 -1.17946,3.58333 -1.17946,3.58334 -1.29678,2.84196 -1.29678,2.84195 -1.49002,2.59483 -1.49002,2.59483 -1.17114,1.72989 -1.17111,1.72989 -1.50544,1.95673 -1.50543,1.95675 -1.98381,2.16324 -1.98379,2.16324 v 0.25769 0.25769 l 15.38363,14.21602 15.38364,14.21603 0.24712,0.002 0.24713,0.002 z m -8.20784,-5.13201 -2.54041,-2.40052 0.008,-0.3089 0.008,-0.30891 h 0.14797 0.14797 l 2.68989,2.50138 2.6899,2.50137 -0.13407,0.21703 -0.13406,0.217 -0.17075,-0.009 -0.17077,-0.009 z m 4.88811,-5.61865 -2.59483,-2.08709 -0.0799,-0.37469 -0.0798,-0.37469 h 0.16968 0.16967 l 2.8145,2.24691 2.81448,2.24689 -0.1387,0.22437 -0.1387,0.22436 -0.17075,-0.009 -0.17077,-0.009 z m 4.37735,-6.06502 -2.89459,-1.99293 v -0.23126 -0.23122 h 0.26813 0.26813 l 2.93971,2.00838 2.93971,2.00837 -0.13329,0.21577 -0.1333,0.21576 h -0.17989 -0.17989 z m 4.08673,-6.24076 -3.0273,-1.76621 v -0.31333 -0.31328 h 0.15688 0.1569 l 2.74684,1.60505 2.74686,1.60504 0.36862,0.23812 0.36862,0.23812 -0.24506,0.23633 -0.24505,0.23635 z m 3.40223,-6.62857 -3.08485,-1.48083 -0.11136,-0.11136 -0.11137,-0.11136 0.23868,-0.23868 0.2387,-0.23869 3.28335,1.59814 3.28337,1.59815 -0.15512,0.25097 -0.15511,0.25099 -0.17075,-0.0182 -0.17077,-0.0182 z m 2.85011,-6.87214 -2.95312,-1.17402 -0.0948,-0.28431 -0.0948,-0.28432 0.45308,0.0124 0.45306,0.0124 2.95531,1.19271 2.95531,1.19271 0.0925,0.27774 0.0927,0.27775 -0.45308,-0.0244 -0.45306,-0.0244 z m 2.52066,-7.00461 -3.15086,-1.01203 v -0.32282 -0.32278 l 0.18534,0.003 0.18535,0.003 3.30334,1.04732 3.30336,1.04732 -0.0159,0.24713 -0.0159,0.24713 -0.32196,0.0374 -0.32196,0.0374 z m 2.28592,-7.11831 -3.08908,-0.72417 -0.35024,-0.12835 -0.35023,-0.12836 0.26338,-0.26337 0.26337,-0.26338 3.49016,0.8116 3.49015,0.81159 -0.0825,0.24761 -0.0825,0.24759 -0.23168,0.0567 -0.23169,0.0567 z m 1.11207,-7.39553 -2.71839,-0.45658 -0.30891,-0.0161 -0.30891,-0.0161 v -0.37361 -0.3736 l 0.92673,0.14426 0.92672,0.14426 2.69251,0.41471 2.69249,0.4147 -0.0283,0.24713 -0.0283,0.24713 -0.56373,0.0402 -0.56371,0.0401 z m 1.85345,-7.32265 -0.86494,-0.0825 -1.79167,-0.14612 -1.79167,-0.14611 v -0.35134 -0.35132 l 1.66811,0.14333 1.6681,0.14318 1.957,0.16737 1.95701,0.16737 0.1024,0.30891 0.10241,0.3089 -1.0709,-0.0395 -1.07087,-0.0395 z m -168.988224,57.33777 9.962201,-9.67166 5.181453,-5.04912 5.18146,-5.04911 -2.16322,-2.5781 -2.16323,-2.5781 -1.93069,-2.84196 -1.93069,-2.84196 -1.511254,-2.71839 -1.511242,-2.71839 -1.209932,-2.84196 -1.209932,-2.84196 -0.782944,-2.33094 -0.782943,-2.33093 -0.629262,-2.48243 -0.629277,-2.48244 -0.558908,-3.32835 -0.558908,-3.32836 -0.225704,-0.0718 -0.225704,-0.0718 -20.876335,-2.72184 -20.876336,-2.72185 h -0.314776 -0.314778 l 0.0026,1.91523 0.0026,1.91523 0.248896,2.96552 0.248895,2.96552 0.499072,3.65599 0.499072,3.65601 0.613128,3.01641 0.613126,3.01643 0.848097,3.21265 0.848097,3.21264 1.215696,3.58334 1.215697,3.58334 1.039824,2.59483 1.039824,2.59483 1.60031,3.33621 1.600309,3.33621 1.513565,2.71839 1.513564,2.71839 1.939016,3.05664 1.939015,3.05661 2.424494,3.2544 2.424486,3.25441 2.326929,2.67132 2.326914,2.67133 0.593876,0.72536 0.593861,0.72535 0.193933,-0.0698 0.193933,-0.0698 z m -7.814785,5.1259 -0.136537,-0.22102 2.687209,-2.49737 2.687215,-2.49737 h 0.153219 0.153218 v 0.34021 0.3402 l -2.568177,2.3782 -2.568187,2.37817 H 80.49821 80.3626 Z m -5.082237,-5.93771 v -0.22765 l 2.727321,-2.18184 2.727305,-2.18183 0.238215,-0.0823 0.238199,-0.0823 v 0.34939 0.34939 l -2.693603,2.14248 -2.693619,2.14247 h -0.271901 -0.271917 z m -4.547747,-6.15866 -0.149465,-0.24185 2.949597,-1.99914 2.949608,-1.99915 h 0.263947 0.263947 v 0.22949 0.2295 l -2.758196,1.89412 -2.758197,1.8941 -0.305881,0.11739 -0.305896,0.11738 z m -3.943541,-6.38852 -0.158139,-0.15813 v -0.17195 -0.17196 l 3.063861,-1.76386 3.06387,-1.76389 h 0.148739 0.14874 v 0.32647 0.32649 l -2.038795,1.15295 -2.038789,1.15296 -1.015712,0.61454 -1.015713,0.61453 z m -3.737193,-6.98837 -0.148446,-0.24019 3.254696,-1.63095 3.254696,-1.63092 0.260685,0.26068 0.260686,0.26069 -0.107083,0.1058 -0.107083,0.1058 -3.18505,1.5046 -3.185049,1.50462 h -0.07479 -0.0748 z m -3.041972,-7.20424 0.09258,-0.27774 2.955312,-1.19271 2.955313,-1.19271 0.453065,-0.0123 0.453066,-0.0124 -0.09168,0.27505 -0.09168,0.27505 -3.079774,1.20555 -3.079775,1.20554 -0.329503,0.002 -0.329502,0.002 z m -2.622366,-7.09743 -0.155484,-0.25159 0.189376,-0.11352 0.189376,-0.11353 3.240617,-1.01569 3.240619,-1.0157 h 0.157373 0.157375 v 0.32481 0.32484 l -3.027302,0.9428 -3.027302,0.94282 -0.404581,0.11306 -0.404582,0.11306 z m -2.010473,-7.46795 -0.163455,-0.26447 0.08652,-0.0766 0.08653,-0.0766 3.420792,-0.79854 3.420794,-0.79853 0.265649,0.26564 0.265649,0.26565 -0.350231,0.12511 -0.350233,0.1251 -2.718393,0.62346 -2.718393,0.62347 -0.540891,0.12542 -0.540889,0.12541 z m -1.474238,-7.64713 -0.153806,-0.24888 0.324572,-0.10688 0.324573,-0.10688 2.718393,-0.3952 2.718394,-0.3952 0.679598,-0.13361 0.679598,-0.1336 v 0.39032 0.39032 l -0.185345,0.003 -0.185345,0.003 -3.089083,0.48784 -3.089083,0.48785 -0.294325,0.003 -0.294323,0.003 z m -0.863864,-7.71979 v -0.3662 l 2.656612,-0.1648 2.656611,-0.1648 1.050289,-0.14411 1.050288,-0.14411 v 0.36995 0.36997 l -1.544542,0.14518 -1.544541,0.14519 -2.162359,0.15997 -2.162358,0.15998 z m 113.33715,56.53512 2.50085,-0.35557 2.68888,-0.60699 2.68889,-0.60697 2.80873,-0.90801 2.80875,-0.908 2.62456,-1.09959 2.62458,-1.09961 2.35112,-1.24791 2.35112,-1.24792 3.08908,-2.06032 3.08908,-2.06033 1.63056,-1.31622 1.63056,-1.31623 0.90249,-0.79561 0.90249,-0.79561 -0.003,-0.1929 -0.003,-0.1929 -1.38176,-0.89645 -1.38176,-0.89645 -2.63076,2.11704 -2.63074,2.11703 -2.45854,1.5961 -2.45856,1.5961 -2.7311,1.42253 -2.73112,1.42254 -2.84196,1.12489 -2.84195,1.12489 -2.96552,0.84612 -2.96552,0.8461 -3.08909,0.53895 -3.08908,0.53895 -0.79374,0.118 -0.79373,0.11801 -0.14457,0.9173 -0.14456,0.91729 -0.1231,0.80316 -0.1231,0.80316 0.56723,-0.005 0.56723,-0.005 z m -18.31769,-1.05636 -0.15461,-1.17385 -0.12557,-0.67175 -0.12557,-0.67177 -0.90881,-0.15687 -0.90881,-0.15686 -2.96552,-0.69728 -2.96552,-0.69729 -2.96552,-1.0265 -2.96552,-1.0265 -3.7069,-1.81504 -3.7069,-1.81502 -2.96552,-1.97581 -2.96552,-1.97579 -1.76473,-1.44126 -1.76473,-1.44124 -1.36803,-1.1884 -1.36804,-1.1884 -1.3846,0.91934 -1.38462,0.91932 0.0873,0.26908 0.0874,0.26906 2.32946,2.06116 2.32946,2.06116 2.47127,1.80306 2.47127,1.80306 2.31015,1.39665 2.31016,1.39665 1.97455,0.99279 1.97458,0.9928 2.63482,1.07531 2.63483,1.07531 2.93378,0.92037 2.93379,0.92038 3.36794,0.69362 3.36795,0.69361 0.20048,0.0154 0.20048,0.0154 z m 20.58341,-4.54387 2.54243,-0.4819 2.15298,-0.61927 2.153,-0.61927 2.4517,-0.89571 2.45169,-0.89572 3.35578,-1.66398 3.35578,-1.664 2.96552,-1.98095 2.96552,-1.98094 1.92086,-1.5392 1.92085,-1.53919 -0.68522,-0.47776 -0.68522,-0.47776 -13.83909,-9.11391 -13.8391,-9.11392 -0.0575,0.17651 -0.0574,0.17649 -2.10495,16.55703 -2.10493,16.55702 v 0.20899 0.20901 l 1.29741,-0.16985 1.29742,-0.16984 z m -21.20047,0.0951 V 212.691 l -2.08913,-16.40136 -2.08914,-16.40137 -0.1078,-0.10781 -0.10781,-0.10781 -13.43387,8.69448 -13.43387,8.69448 -0.12356,0.11847 -0.12356,0.11847 1.59928,1.47599 1.59929,1.47601 1.73692,1.30645 1.73693,1.30645 2.10057,1.40185 2.10058,1.40184 3.13242,1.59671 3.13244,1.59672 2.49325,0.97164 2.49323,0.97164 2.15882,0.63499 2.15882,0.63499 2.10058,0.4735 2.10057,0.47349 0.43247,0.0208 0.43248,0.0209 z m 55.6035,-10.8312 v -0.14349 l -7.47558,-7.70864 -7.47558,-7.70864 -6.79223,-7.03725 -6.79225,-7.03726 -2.21163,-2.28592 -2.21163,-2.28592 h -0.40471 -0.40473 l -0.69128,5.41019 -0.69129,5.41017 0.0913,0.262 0.0913,0.26199 6.48526,4.27467 6.48529,4.27467 5.07056,3.33621 5.07056,3.33621 5.86658,3.88273 5.86661,3.88273 0.0618,0.009 0.0618,0.009 z m -75.26884,-19.87384 13.69232,-13.22128 0.16712,-0.45109 0.1671,-0.45109 -0.10827,-0.10827 -0.10827,-0.10827 -5.41287,-0.71151 -5.41284,-0.71151 -0.14689,0.15881 -0.14688,0.15881 -10.62046,16.43392 -10.62044,16.43393 -0.21401,0.37069 -0.21401,0.37069 2.64302,-2.47127 2.643,-2.47127 z m 77.42104,15.63076 1.71031,-1.91523 1.37201,-1.72989 1.37201,-1.72988 1.48369,-2.22414 1.48369,-2.22414 1.29083,-2.27774 1.29084,-2.27773 1.30418,-2.91811 1.30418,-2.9181 1.01675,-3.0829 1.01676,-3.08291 0.59784,-2.59483 0.59785,-2.59483 0.27793,-1.85345 0.27794,-1.85345 0.11306,-0.69426 0.11306,-0.69425 -1.1706,0.15414 -1.1706,0.15415 -0.667,0.12449 -0.66698,0.12449 -0.1619,1.15698 -0.1619,1.15699 -0.59369,2.86795 -0.59367,2.86794 -0.88373,2.79084 -0.88374,2.79084 -1.1117,2.61996 -1.11168,2.61996 -1.25031,2.3477 -1.2503,2.3477 -1.79424,2.7184 -1.79421,2.71839 -2.06336,2.43693 -2.06333,2.43693 -0.57206,0.69363 -0.57203,0.69362 0.91594,1.37951 0.91593,1.3795 h 0.18596 0.18595 z m -94.73614,-1.17005 0.89994,-1.3554 v -0.12804 -0.12804 l -1.7735,-2.16162 -1.7735,-2.16162 -1.95319,-2.96552 -1.95318,-2.96552 -1.66714,-3.35577 -1.66715,-3.35577 -0.889544,-2.45171 -0.889548,-2.4517 -0.488647,-1.61656 -0.488647,-1.61658 -0.619577,-2.8317 -0.619562,-2.83172 -0.157065,-1.14821 -0.157079,-1.14823 -1.656799,-0.24288 -1.656815,-0.24286 -0.177236,0.10333 -0.177252,0.10333 0.109508,0.67002 0.109508,0.67001 0.633,3.33621 0.633015,3.33621 0.875276,2.96552 0.875277,2.96552 1.077472,2.6317 1.077457,2.63169 1.160383,2.31084 1.160385,2.31083 1.35142,2.22414 1.35144,2.22414 1.62027,2.22414 1.62028,2.22414 1.50503,1.78495 1.50503,1.78495 0.15044,0.006 0.15044,0.006 z m 91.34996,-2.78397 1.27683,-1.42098 1.78493,-2.35756 1.78494,-2.35756 1.44737,-2.33785 1.44738,-2.33785 1.55632,-3.1952 1.55634,-3.19521 1.24076,-3.77459 1.24078,-3.77458 0.62159,-3.06988 0.62158,-3.06989 v -0.52499 -0.52499 h -0.23217 -0.23218 l -13.6687,1.74061 -13.6687,1.74061 -3.54511,0.46589 -3.54511,0.46591 -0.12402,0.12403 -0.12403,0.12403 9.45088,14.35053 9.45087,14.35053 h 0.1913 0.19131 z m -80.61652,-13.81174 8.72142,-13.49593 -0.13159,-0.1316 -0.1316,-0.13159 -14.76804,-1.92229 -14.768037,-1.92231 -1.050288,-0.15445 -1.050288,-0.15445 0.0015,0.57118 0.0015,0.57117 0.596316,2.84196 0.596317,2.84196 0.890397,2.92045 0.890393,2.92045 1.33391,3.01059 1.33393,3.01059 1.16054,2.10057 1.16052,2.10058 1.4841,2.22405 1.48409,2.22405 1.61578,2.03888 1.61579,2.03889 0.14549,-0.003 0.1455,-0.003 z m 61.83324,-14.53924 12.72703,-1.60376 22.36496,-2.84739 22.36496,-2.84738 14.69704,-1.8663 14.69704,-1.86631 0.0731,-0.0731 0.0731,-0.0731 -14.39941,-0.16495 -14.39941,-0.16494 -22.48852,-0.24877 -22.48853,-0.24876 -19.26425,-0.23205 -19.26425,-0.23206 -0.0798,0.0799 -0.0799,0.0798 4.73565,5.78046 4.73565,5.78045 1.09731,1.29733 1.0973,1.29736 0.53699,-0.1214 0.53699,-0.1214 z m -136.997277,-12.72232 0.281599,-0.0108 0.163596,-3.02731 0.163595,-3.0273 0.360978,-3.70689 0.360976,-3.7069 0.63573,-3.83046 0.635729,-3.83046 1.109755,-4.4261 1.109753,-4.42609 1.117615,-3.3584 1.117613,-3.35839 1.241047,-3.08909 1.241046,-3.08908 1.902103,-3.95403 1.902103,-3.95403 1.566195,-2.718389 1.566194,-2.718393 1.844188,-2.841957 1.844185,-2.841956 2.414627,-3.212647 2.414632,-3.212647 2.465088,-2.841957 2.465089,-2.841956 3.92624,-3.841282 3.926225,-3.841279 2.269633,-1.883038 2.269611,-1.883035 2.425796,-1.832273 2.42578,-1.832273 2.59483,-1.731416 2.59483,-1.731414 2.783196,-1.647316 2.78319,-1.647315 3.66807,-1.83709 3.66805,-1.837092 3.31025,-1.397926 3.31026,-1.397928 4.32472,-1.443394 4.32471,-1.443394 4.07759,-0.997787 4.07759,-0.997786 2.84196,-0.501665 2.84196,-0.501666 2.71839,-0.355147 2.71839,-0.355148 4.20116,-0.291336 4.20115,-0.291337 0.0366,-0.03345 0.0366,-0.03346 0.41795,-3.293542 0.41795,-3.293542 -0.0965,-0.09653 -0.0965,-0.09653 -4.31202,0.242794 -4.31204,0.242793 -3.08908,0.372086 -3.08908,0.372087 -3.58334,0.623151 -3.58334,0.623153 -4.01875,0.984638 -4.01876,0.984638 -3.8893,1.255882 -3.88929,1.255882 -3.7069,1.474135 -3.70692,1.474136 -3.95643,1.912766 -3.95646,1.912767 -3.333791,1.936528 -3.333786,1.936529 -2.471266,1.597964 -2.471267,1.597966 -3.7069,2.782574 -3.706906,2.782574 -2.718394,2.342081 -2.718393,2.342083 -3.470616,3.434456 -3.470611,3.434459 -2.544682,2.96552 -2.544684,2.96552 -2.161193,2.841957 -2.161196,2.841956 -1.972477,2.96552 -1.972475,2.96552 -1.615083,2.718394 -1.615082,2.718393 -1.252151,2.347703 -1.25215,2.347708 -1.474894,3.22637 -1.474894,3.22638 -1.135497,2.87097 -1.135498,2.87096 -1.102993,3.33509 -1.102994,3.33508 -0.873102,3.2946 -0.873101,3.2946 -0.612036,2.96552 -0.612035,2.96552 -0.488239,3.21264 -0.488237,3.21265 -0.290767,2.84195 -0.290766,2.84195 -0.158589,4.03677 -0.158587,4.03675 0.06251,0.0621 0.06251,0.0621 3.273698,-0.44228 3.273699,-0.44229 z m 39.505794,0.4831 22.982773,-0.2363 10.37934,-0.12835 10.37932,-0.12835 13.22127,-0.15369 13.22128,-0.15352 0.0674,-0.0589 0.0673,-0.0589 -6.72204,-5.53414 -6.72201,-5.53414 -0.31679,-0.19208 -0.3168,-0.19208 -17.98836,2.34492 -17.98838,2.34492 -30.520149,3.97105 -30.520139,3.97104 -0.247126,0.11198 -0.247127,0.11183 9.143688,-0.12465 9.143687,-0.12464 z m 189.422603,-2.0515 v -2.54542 l -0.25823,-3.32383 -0.25823,-3.32382 -0.61718,-4.32472 -0.61719,-4.32471 -0.85371,-3.97591 -0.8537,-3.9759 -0.97204,-3.31433 -0.97205,-3.31434 -0.97527,-2.84195 -0.97525,-2.84196 -0.99428,-2.47127 -0.99429,-2.47126 -1.50236,-3.27548 -1.50234,-3.27549 -1.64943,-3.026244 -1.64943,-3.02625 -1.59793,-2.59483 -1.59793,-2.59483 -1.85886,-2.718393 -1.85887,-2.718394 -1.9133,-2.471266 -1.9133,-2.471267 -2.35005,-2.730742 -2.35005,-2.730742 -3.05365,-3.085835 -3.05364,-3.085835 -3.21265,-2.803411 -3.21264,-2.803412 -3.35129,-2.522682 -3.35127,-2.522683 -2.8269,-1.86399 -2.82688,-1.86399 -3.29719,-1.892073 -3.2972,-1.892075 -2.63384,-1.318844 -2.63385,-1.318845 -2.96552,-1.290111 -2.96552,-1.290112 -2.47126,-0.938052 -2.47127,-0.938051 -3.54683,-1.139575 -3.54682,-1.139575 -3.99054,-0.982105 -3.99054,-0.982106 -4.32471,-0.730982 -4.32472,-0.730982 -3.95403,-0.37718 -3.95403,-0.37718 -4.39976,-0.169168 -4.39977,-0.169167 0.15931,1.209674 0.1593,1.209676 0.29308,2.22414 0.29307,2.22414 4.19452,0.171719 4.19451,0.171719 3.7069,0.398288 3.7069,0.398288 3.58333,0.606462 3.58334,0.606462 4.07759,1.00292 4.07759,1.002919 4.32472,1.443394 4.32472,1.443394 3.31148,1.39845 3.31149,1.398448 3.37821,1.69233 3.37822,1.692329 2.45399,1.413492 2.45398,1.413492 3.08908,2.020225 3.08909,2.020224 2.71839,2.063935 2.71839,2.063934 2.22414,1.873185 2.22414,1.873186 3.43563,3.338033 3.43565,3.338034 2.65955,3.029774 2.65956,3.029775 2.20712,2.901265 2.20712,2.901266 1.99071,2.974938 1.9907,2.974938 1.77692,3.079666 1.7769,3.079665 1.82596,3.7429 1.82594,3.74289 1.21786,3.05309 1.21784,3.05309 0.90363,2.59483 0.90363,2.59483 0.9733,3.4346 0.9733,3.43461 0.85967,4.22632 0.85967,4.22632 0.48768,3.83046 0.48769,3.83046 0.25673,4.54971 0.25672,4.54969 0.0633,0.049 0.0633,0.049 2.96552,0.37322 2.96552,0.37321 0.43247,0.0324 0.43247,0.0324 z m -204.383275,-1.62859 20.378445,-2.64903 0.426835,-2.82842 0.426849,-2.82841 0.518317,-2.22414 0.518333,-2.22414 0.86119,-2.76954 0.861206,-2.76954 1.11278,-2.65606 1.112796,-2.65606 1.494777,-2.85315 1.494792,-2.85314 1.811065,-2.72593 1.81105,-2.72594 1.65932,-2.09303 1.65931,-2.09304 1.12204,-1.15963 1.12203,-1.15964 -0.71809,-1.09536 -0.7181,-1.09536 -13.576289,-14.742033 -13.576311,-14.74203 -1.219818,1.180921 -1.219801,1.180921 -2.666914,3.029775 -2.666899,3.029774 -2.204504,2.901266 -2.2045,2.901265 -1.743613,2.607971 -1.743613,2.607971 -1.049028,1.713907 -1.049026,1.713907 -1.688848,3.160325 -1.688848,3.16032 -1.584662,3.51494 -1.584659,3.51493 -1.117187,2.96552 -1.117186,2.96552 -0.876609,2.84196 -0.876608,2.84196 -0.757222,3.02605 -0.757223,3.02606 -0.479533,2.43292 -0.479534,2.43292 -0.494166,3.43758 -0.494163,3.43759 -0.2586,3.32382 -0.258601,3.32383 v 1.79931 1.79933 l 1.050288,-0.13993 1.050289,-0.13994 z M 55.28948,146.323 l -2.184592,-0.19372 -0.126081,-0.12603 -0.126081,-0.12604 0.127069,-0.20561 0.12707,-0.20559 3.542795,0.28529 3.542794,0.2853 0.06178,0.0275 0.06178,0.0275 v 0.24713 0.24712 l -1.420979,-0.0344 -1.420978,-0.0344 z m 1.33694,-7.42998 -2.824667,-0.46916 -0.124382,-0.12439 -0.124382,-0.12438 0.230651,-0.21783 0.230652,-0.21784 2.96552,0.46821 2.96552,0.46822 0.556035,0.12914 0.556035,0.12914 v 0.24241 0.24242 l -0.803161,-0.0284 -0.803162,-0.0284 z m 1.974151,-7.24343 -3.321784,-0.79349 -0.0968,-0.29041 -0.0968,-0.29041 h 0.373495 0.373493 l 3.290646,0.76041 3.290646,0.7604 0.0881,0.0881 0.0881,0.0881 -0.162894,0.26357 -0.162895,0.26357 -0.17076,-0.0282 -0.17076,-0.0282 z m 1.624852,-7.31812 -2.932566,-0.95101 -0.119486,-0.11948 -0.119486,-0.11949 0.144199,-0.23333 0.144198,-0.23333 3.392631,1.05343 3.392629,1.05343 0.09184,0.27553 0.09184,0.27553 -0.576629,-0.0251 -0.576628,-0.0251 z m 2.747219,-6.96387 -3.150865,-1.25146 v -0.36067 -0.36066 l 0.432471,0.15734 0.432472,0.15735 3.027302,1.16423 3.027301,1.16424 v 0.31118 0.31118 l -0.308908,-0.0206 -0.308908,-0.0206 z m 2.903738,-6.90034 -2.96552,-1.50131 -0.08653,-0.0789 -0.08652,-0.0789 0.151967,-0.2459 0.151968,-0.2459 3.225932,1.55346 3.225932,1.55345 -0.0039,0.22055 -0.0039,0.22054 -0.321963,0.0521 -0.321961,0.0521 z m 4.44828,-7.87428 -2.96552,-1.72376 v -0.30991 -0.30992 l 0.247127,0.0427 0.247127,0.0427 2.929711,1.70428 2.929702,1.70428 -0.0077,0.22386 -0.0077,0.22385 -0.20388,0.0628 -0.203879,0.0628 z m 3.567345,-4.721539 -2.578844,-1.767403 -0.416146,-0.286859 -0.416138,-0.286857 0.184744,-0.298923 0.184749,-0.298924 2.949796,2.018931 2.949781,2.018929 0.107037,0.08761 0.107037,0.08761 -0.246648,0.246643 -0.246632,0.246643 z m 4.596957,-5.815103 -1.967885,-1.61505 -0.747589,-0.585076 -0.747589,-0.585074 0.252008,-0.252007 0.252007,-0.252008 2.772375,2.226009 2.772375,2.226008 v 0.240698 0.240698 l -0.308908,-0.01452 -0.308909,-0.01452 z m 4.356612,-6.07851 -2.468363,-2.285922 -0.04047,-0.240948 -0.04047,-0.240949 0.22019,-0.0734 0.22019,-0.0734 2.454956,2.281478 2.454962,2.281478 0.07985,0.318787 0.07985,0.318789 h -0.2462 -0.246184 z M 266.17256,150.95974 v -1.55691 l -0.25429,-3.32384 -0.2543,-3.32381 -0.37217,-2.84196 -0.37217,-2.84195 -0.62735,-3.33621 -0.62733,-3.33621 -0.95637,-3.7069 -0.95638,-3.7069 -1.21767,-3.58334 -1.21767,-3.58334 -1.1934,-2.96552 -1.19341,-2.96552 -2.15165,-4.32471 -2.15166,-4.32472 -1.78538,-2.96552 -1.7854,-2.96552 -2.0905,-3.042675 -2.09052,-3.042673 -1.99552,-2.517677 -1.9955,-2.517676 -2.40969,-2.718393 -2.40968,-2.718393 -1.13761,-1.106467 -1.1376,-1.106465 -14.46794,14.451305 -14.46792,14.451304 -0.49895,0.68478 -0.49893,0.68478 1.71453,1.78649 1.71454,1.78649 1.7526,2.16269 1.7526,2.16268 1.59852,2.40916 1.59852,2.40915 1.50468,2.71443 1.50468,2.71443 1.21921,2.88687 1.2192,2.88688 0.77471,2.30675 0.7747,2.30675 0.72306,2.96552 0.72305,2.96552 0.44368,2.96552 0.44369,2.96551 6.29099,0.80356 6.29098,0.80355 14.20979,1.82817 14.20978,1.82816 0.92672,0.0249 0.92673,0.0249 z m -13.59197,-4.57085 v -0.26419 l 0.43247,-0.12558 0.43248,-0.12557 2.96552,-0.16631 2.96552,-0.1663 0.24094,0.009 0.24095,0.009 0.0786,0.23599 0.0786,0.23601 -1.06099,0.14565 -1.061,0.14565 -2.65661,0.1648 -2.65661,0.1648 z m -0.68214,-7.27118 0.10039,-0.30126 3.44173,-0.53407 3.44174,-0.53408 0.23064,0.2134 0.23067,0.2134 -0.11909,0.11902 -0.11908,0.11904 -3.13484,0.50291 -3.13483,0.5029 h -0.51893 -0.51894 z m -1.41819,-6.86501 -0.17329,-0.28041 0.10008,-0.10009 0.10009,-0.10008 3.29556,-0.76154 3.29557,-0.76154 0.37731,0.14479 0.37732,0.14478 -0.22668,0.19835 -0.22666,0.19835 -3.08908,0.69197 -3.08908,0.69197 -0.28392,0.10693 -0.2839,0.10693 z m -1.80305,-7.19548 0.0919,-0.27552 3.37571,-1.04818 3.3757,-1.04817 0.12372,0.32237 0.12372,0.32237 -3.17608,1.00133 -3.17607,1.00133 h -0.41517 -0.41519 z m -2.52191,-6.70807 v -0.31118 l 3.0273,-1.16424 3.0273,-1.16423 0.43247,-0.15735 0.43248,-0.15734 v 0.36114 0.36115 l -3.27443,1.27296 -3.27443,1.27297 -0.18535,-0.001 -0.18534,-0.001 z m -2.84358,-6.61099 -0.1543,-0.24975 3.16708,-1.49995 3.16707,-1.49994 0.21624,-0.042 0.21623,-0.042 0.0941,0.25106 0.0939,0.25105 -3.09289,1.54062 -3.09292,1.54061 h -0.23003 -0.23003 z m -3.2971,-6.30016 0.086,-0.43581 2.91538,-1.6968 2.9154,-1.6968 h 0.25607 0.25607 l -0.10256,0.30891 -0.10255,0.30891 -1.70966,1.00268 -1.70966,1.00268 -1.44528,0.82102 -1.44526,0.82102 z m -3.87563,-6.065961 -0.16539,-0.267599 0.0865,-0.06946 0.0865,-0.06946 2.7184,-1.852168 2.71839,-1.852169 0.30891,-0.177092 0.30891,-0.177093 v 0.370077 0.370076 l -2.65662,1.828025 -2.65661,1.828025 -0.29184,0.168218 -0.29183,0.168219 z m -4.31704,-5.912201 V 93.21914 l 2.77238,-2.226008 2.77237,-2.226009 0.24257,0.242566 0.24257,0.242567 -0.23477,0.207514 -0.23477,0.207515 -2.51805,2.016625 -2.51805,2.016626 h -0.26212 -0.26213 z m -4.78014,-5.381434 -0.11383,-0.185345 2.55819,-2.347703 2.5582,-2.347703 h 0.25951 0.25951 l 0.0618,0.159484 0.0618,0.159485 -2.56688,2.373564 -2.56685,2.373563 h -0.19873 -0.19873 z m -63.17611,15.992426 -4.70856,-36.442157 -1.60966,-12.479897 -1.60966,-12.479899 -0.11013,-0.247126 -0.11013,-0.247127 0.11693,8.649433 0.11692,8.649435 0.12588,12.603461 0.12588,12.60346 0.12387,10.626447 0.12387,10.62645 0.12094,10.25575 0.12094,10.25576 0.15906,12.81579 0.15905,12.81578 5.7817,-5.78172 5.7817,-5.78169 z m 57.6943,42.08233 -0.11738,-0.67959 -0.38157,-2.3477 -0.38158,-2.3477 -0.85995,-3.29812 -0.85994,-3.29812 -1.13624,-3.00361 -1.13624,-3.00361 -1.70674,-3.37786 -1.70675,-3.37785 -2.18742,-3.29457 -2.18743,-3.29456 -2.34171,-2.7184 -2.34171,-2.71839 -0.61442,-0.56232 -0.61443,-0.56232 -0.90412,1.36168 -0.90409,1.36168 v 0.15291 0.15291 l 1.77236,2.00805 1.77236,2.00806 1.68038,2.26525 1.68039,2.26525 1.41058,2.31179 1.41058,2.31178 1.56413,3.24855 1.56413,3.24855 1.23498,3.69747 1.235,3.69748 0.80164,4.10157 0.80164,4.10157 0.74138,0.0953 0.74138,0.0953 1.04411,0.0395 1.04411,0.0395 z m -125.5192,0.10271 0.01545,-0.0409 0.78109,-4.00501 0.781106,-4.00502 1.113429,-3.33269 1.113445,-3.33268 1.12386,-2.50063 1.12387,-2.50062 1.27022,-2.27088 1.27021,-2.27087 1.6732,-2.47127 1.67321,-2.47126 1.74558,-2.10058 1.74557,-2.10058 3.4e-4,-0.19721 3.6e-4,-0.19722 -0.89899,-1.40534 -0.89898,-1.40533 -1.09913,1.23186 -1.09912,1.23186 -1.55194,1.97702 -1.55194,1.97701 -1.31509,1.96506 -1.31508,1.96506 -1.27358,2.24886 -1.273564,2.24886 -1.286202,2.80226 -1.286186,2.80226 -0.968644,2.80916 -0.968643,2.80917 -0.7306,3.02524 -0.730599,3.02524 -0.27777,1.85345 -0.277755,1.85345 -0.125571,0.58925 -0.125571,0.58924 1.804719,-0.17766 1.804705,-0.17769 z m 120.10867,-1.21477 -0.16716,-1.29742 -0.62889,-2.84195 -0.62891,-2.84196 -0.9483,-2.84195 -0.94831,-2.84196 -1.21757,-2.71839 -1.21757,-2.7184 -1.42726,-2.47126 -1.42725,-2.47127 -1.1943,-1.72989 -1.19429,-1.72988 -1.30611,-1.62942 -1.30611,-1.62942 -1.1846,-1.313 -1.1846,-1.313 -0.20677,0.22403 -0.20677,0.22402 -9.29686,14.18197 -9.29685,14.18198 v 0.18349 0.18351 l 3.27442,0.42291 3.27443,0.42292 13.96266,1.80308 13.96266,1.80308 0.34074,0.0278 0.34074,0.0278 z m -101.83625,-1.19267 15.56898,-2.01336 0.0659,-0.059 0.066,-0.059 -8.71535,-13.77032 -8.71536,-13.77033 -1.15522,1.27965 -1.15523,1.27964 -1.72236,2.40694 -1.72237,2.40695 -1.53536,2.632 -1.53535,2.63201 -1.31826,2.94958 -1.31825,2.94958 -1.0134,3.16769 -1.013416,3.16769 -0.607406,2.99657 -0.607422,2.99657 v 0.50184 0.50185 l 0.432471,-0.0916 0.432472,-0.0916 z m 68.35135,-5.72687 2.29653,-3.52156 8.51311,-12.97415 8.5131,-12.97415 0.47596,-0.67781 0.47597,-0.67781 -0.32446,0.15972 -0.32446,0.15972 -3.45128,3.60718 -3.45128,3.60717 -3.35218,3.45977 -3.35218,3.45977 -7.03374,7.29024 -7.03373,7.29024 -1.81697,1.89239 -1.81698,1.89238 -0.0383,0.20819 -0.0383,0.20819 3.95402,0.52704 3.95403,0.52705 0.77737,0.029 0.77738,0.029 z m -40.45006,-2.59483 0.42176,-3.15087 0.14163,-1.50072 0.14164,-1.50072 -6.76585,-4.29181 -6.76584,-4.29182 -8.03161,-5.10145 -8.03162,-5.10145 -1.11207,-0.67647 -1.11207,-0.67646 2.59483,2.55674 2.59483,2.55673 12.60346,12.15995 12.60346,12.15996 0.14781,0.005 0.14781,0.005 z m 2.99028,-23.10888 2.09984,-16.208419 v -0.612178 -0.612177 l -2.16236,0.46906 -2.16236,0.469061 -2.71839,0.76619 -2.7184,0.76619 -2.63483,1.074287 -2.63482,1.074289 -2.06059,1.035697 -2.06057,1.03571 -2.18823,1.33274 -2.18823,1.33273 -2.26005,1.67836 -2.26005,1.67836 -1.92651,1.68898 -1.9265,1.68898 0.20219,0.20219 0.20218,0.2022 13.58641,8.62345 13.58639,8.62346 0.0626,-0.0504 0.0625,-0.0504 z m 37.14213,6.45621 14.01236,-9.18331 0.20837,-0.18423 0.20837,-0.18422 -2.30895,-1.84972 -2.30895,-1.84973 -2.61866,-1.71945 -2.61866,-1.71945 -2.69456,-1.37226 -2.69456,-1.372264 -2.94742,-1.160199 -2.94744,-1.1602 -3.725,-0.944416 -3.72499,-0.944415 -2.2806,-0.31709 -2.2806,-0.317089 -0.17573,0.175733 -0.17573,0.175733 2.03654,15.872237 2.03654,15.87223 0.14117,0.81798 0.14118,0.81798 0.35249,-0.13527 0.3525,-0.13527 z m -66.83111,-10.02044 1.5158,-1.4044 1.85345,-1.4807 1.85345,-1.48071 2.96552,-1.95001 2.96552,-1.95001 3.45977,-1.699679 3.45978,-1.69968 4.07759,-1.353539 4.07759,-1.353539 2.84195,-0.549098 2.84196,-0.5491 0.16374,-0.150223 0.16374,-0.150222 0.17685,-1.695181 0.17686,-1.69518 -1.08198,0.170188 -1.08197,0.17019 -2.84196,0.619855 -2.84195,0.619856 -3.06382,0.991854 -3.06381,0.991852 -2.59573,1.087515 -2.59574,1.087513 -2.12495,1.153683 -2.12493,1.153685 -1.97702,1.227621 -1.97701,1.227619 -2.77417,2.07644 -2.77415,2.07644 -2.11656,2.0035 -2.11656,2.0035 1.43095,0.95139 1.43094,0.95139 0.0905,7.9e-4 0.0905,7.8e-4 z m 84.33757,-1.49282 1.38594,-0.92021 -0.95726,-0.83358 -0.95726,-0.83358 -1.83861,-1.48482 -1.83859,-1.48482 -2.48613,-1.66427 -2.48611,-1.664282 -2.29843,-1.264649 -2.29843,-1.264648 -2.39698,-1.098158 -2.39697,-1.09816 -2.59477,-0.902645 -2.59477,-0.902646 -2.71845,-0.723244 -2.71846,-0.723242 -2.96552,-0.476898 -2.96552,-0.476895 -1.07695,-0.125958 -1.07694,-0.125957 0.17183,1.648163 0.17183,1.648165 0.16373,0.162308 0.16374,0.162309 2.83314,0.410027 2.83315,0.410028 3.22145,0.829608 3.22147,0.829607 2.22414,0.789046 2.22414,0.789046 2.47127,1.108987 2.47126,1.108989 2.59483,1.487769 2.59483,1.48777 2.22414,1.54987 2.22414,1.54987 1.72989,1.49021 1.72989,1.4902 0.3127,0.0184 0.31271,0.0185 z m -87.51718,-2.5506 0.49426,-0.55975 2.47126,-1.98325 2.47127,-1.98324 2.96552,-1.944949 2.96552,-1.944953 3.14452,-1.599642 3.14452,-1.599643 2.8318,-1.107256 2.83181,-1.107257 2.92024,-0.839746 2.92023,-0.839744 2.84196,-0.536674 2.84195,-0.536673 0.55227,-0.109168 0.55227,-0.109168 0.12387,-0.552271 0.12387,-0.552271 1.74059,-13.591967 1.74061,-13.591967 0.85847,-6.672421 0.85849,-6.67242 0.12434,-0.717982 0.12433,-0.717983 -3.27593,0.15906 -3.27592,0.15906 -3.08909,0.381356 -3.08908,0.381357 -2.96552,0.498334 -2.96552,0.498332 -3.9944,0.964633 -3.9944,0.964631 -3.54297,1.150508 -3.54296,1.150507 -3.45432,1.360904 -3.45432,1.360903 -3.46523,1.661897 -3.46524,1.661898 -3.33621,1.923569 -3.336203,1.923568 -2.96552,1.978332 -2.96552,1.978332 -2.22414,1.676105 -2.22414,1.676105 -1.977013,1.648013 -1.977013,1.64801 -2.034956,1.849111 -2.034964,1.849112 5.741871,6.233574 5.741849,6.233572 8.402299,9.09644 8.40231,9.096442 0.23445,0.32927 0.23443,0.32927 0.87764,-0.69604 0.87763,-0.69603 z m -24.306458,-24.181114 -2.518468,-2.70827 0.268549,-0.165966 0.268534,-0.165966 0.506656,0.456681 0.506672,0.456681 1.986589,2.174216 1.986605,2.174217 -0.243342,0.24334 -0.243343,0.243338 z m 5.671927,-4.868769 -2.296208,-2.868731 0.24257,-0.242571 0.24257,-0.242571 2.04763,2.553647 2.047646,2.553648 0.244284,0.319382 0.24427,0.319382 -0.238261,0.238272 -0.238277,0.238273 z m 5.929032,-4.531483 -1.998544,-2.948695 v -0.140384 -0.140383 h 0.320724 0.320724 l 2.015735,2.935582 2.01573,2.935584 -0.15353,0.153496 -0.15352,0.153497 h -0.18442 -0.18442 z m 6.433539,-3.795246 -1.75967,-3.076357 v -0.300104 -0.300106 l 0.27132,0.09043 0.2713,0.09043 1.74584,3.028546 1.74582,3.028548 -0.25749,0.257479 -0.25747,0.257479 z m 6.51909,-3.635379 -1.64168,-3.276143 0.23691,-0.236912 0.23691,-0.236911 0.17603,0.284826 0.17604,0.284825 1.47001,2.986937 1.47004,2.986937 -0.24129,0.241291 -0.24129,0.241293 z m 6.82494,-2.986492 -1.26459,-3.233617 v -0.246749 -0.24675 l 0.2995,0.09984 0.29952,0.09984 1.17623,2.916634 1.17623,2.916635 0.1472,0.463896 0.14719,0.463895 h -0.35838 -0.35838 z m 7.04529,-2.389934 -0.95735,-3.149444 -0.11352,-0.308908 -0.11353,-0.308909 h 0.37755 0.37755 l 0.8631,2.780175 0.86311,2.780175 0.16593,0.679599 0.16593,0.679598 -0.33571,-0.0014 -0.33569,-0.0014 z m 7.83619,0.742801 -0.1737,-0.679598 -0.65938,-2.841957 -0.6594,-2.841958 0.22602,-0.08753 0.22601,-0.08753 0.13963,0.139658 0.13962,0.139673 0.70051,2.913379 0.7005,2.913381 0.009,0.556035 0.009,0.556035 h -0.24243 -0.24241 z m 6.74521,-3.7069 -0.42146,-2.90374 -0.13391,-0.679598 -0.13391,-0.679599 h 0.36088 0.36088 l 0.41441,2.780176 0.4144,2.780176 0.13684,0.803162 0.13685,0.803161 h -0.35678 -0.35677 z m 7.41082,-0.247127 -0.16219,-2.409486 -0.14735,-1.297415 -0.14719,-1.297415 h 0.36726 0.36726 l 0.16224,2.038795 0.16224,2.038795 0.14873,1.668106 0.14874,1.668105 h -0.36876 -0.36875 z m 84.11755,20.156016 v -0.171671 l -3.27443,-2.880564 -3.27442,-2.880566 -3.21265,-2.410637 -3.21265,-2.410637 -2.59483,-1.722716 -2.59483,-1.722715 -2.3477,-1.361603 -2.3477,-1.361603 -2.10058,-1.12706 -2.10058,-1.127061 -2.84195,-1.29519 -2.84196,-1.295189 -2.96552,-1.172479 -2.96552,-1.172478 -3.50206,-1.140544 -3.50207,-1.140545 -3.54104,-0.869775 -3.54105,-0.869774 -3.45977,-0.609364 -3.45978,-0.609365 -3.08908,-0.373453 -3.08909,-0.373453 -4.44828,-0.244595 -4.44828,-0.244597 -0.43247,-0.0048 -0.43247,-0.0048 v 0.636663 0.636662 l 2.60058,20.18376 2.60059,20.18376 0.12449,0.617817 0.12449,0.617817 3.90913,0.548967 3.90914,0.548967 3.31423,0.849424 3.31423,0.849425 2.84037,1.037293 2.84036,1.037294 3.0177,1.435 3.01768,1.434998 2.78979,1.680631 2.78979,1.68063 2.84195,2.147973 2.84196,2.14799 1.3592,1.24215 1.35919,1.24216 15.01295,-14.995295 15.01294,-14.995296 z m -10.49236,7.724547 -0.19174,-0.31026 1.07713,-1.1508 1.07715,-1.150801 1.35343,-1.420978 1.35344,-1.420978 h 0.19308 0.19309 l -0.0108,0.308908 -0.0108,0.308908 -2.42119,2.57313 -2.42119,2.573129 z m -5.43934,-4.699548 -0.17408,-0.281667 0.2266,-0.298083 0.2266,-0.298083 2.04764,-2.553648 2.04763,-2.553647 0.24713,0.247126 0.24712,0.247127 -2.04384,2.553648 -2.04385,2.553648 -0.30344,0.332621 -0.30344,0.332624 z m -5.88963,-4.370604 -0.15657,-0.156559 2.00347,-2.932524 2.00347,-2.932522 h 0.33605 0.33605 v 0.144569 0.144569 l -2.01166,2.944512 -2.01166,2.944515 h -0.17129 -0.1713 z m -5.99668,-3.874299 -0.12434,-0.32396 1.70879,-2.940597 1.70877,-2.940599 0.27675,-0.09224 0.27674,-0.09224 v 0.303243 0.303243 l -1.7601,3.053561 -1.76011,3.053562 h -0.10117 -0.10117 z m -6.3925,-3.356191 -0.13623,-0.220379 1.4909,-3.107479 1.49088,-3.107478 0.21997,-0.135951 0.21998,-0.135951 0.14812,0.239706 0.14812,0.239705 -1.61561,3.224099 -1.61559,3.2241 h -0.10719 -0.10719 z m -6.81251,-2.86466 v -0.119517 l 1.25473,-3.154912 1.25476,-3.15491 0.2239,-0.230652 0.22388,-0.230652 0.16826,0.168255 0.16825,0.168255 -1.31654,3.336825 -1.31654,3.336826 h -0.33034 -0.33036 z m -6.67242,-2.612094 v -0.301531 l 0.99913,-3.178835 0.99913,-3.178836 h 0.37672 0.37671 l -0.1788,0.556035 -0.17879,0.556035 -0.89099,2.822309 -0.89098,2.822309 -0.30607,0.102017 -0.30606,0.102017 z m -6.90974,-2.025577 0.009,-0.556035 0.69102,-2.96552 0.69099,-2.965521 0.38124,-0.07412 0.38123,-0.07412 -0.70135,3.039642 -0.70134,3.039643 -0.13824,0.556035 -0.13824,0.556035 h -0.24241 -0.24242 z m -7.17329,-1.235633 0.003,-0.308908 0.48784,-3.089084 0.48785,-3.089085 0.003,-0.185345 0.003,-0.185345 h 0.39747 0.39749 l -0.12851,0.556035 -0.12851,0.556035 -0.43617,3.027304 -0.43618,3.027301 h -0.32706 -0.32706 z m -7.07145,-2.471267 0.16224,-2.038796 0.14874,-1.668105 0.14874,-1.668105 h 0.36683 0.36681 l -0.1404,1.050288 -0.1404,1.050288 -0.16429,2.656614 -0.16429,2.656611 h -0.37309 -0.37307 z m -98.626501,199.013533 -0.138962,-0.53138 -0.951671,-0.48551 -0.951669,-0.48551 -0.397653,-0.76897 -0.397654,-0.76898 0.153837,-0.82003 0.153836,-0.82003 0.751939,-0.6327 0.751937,-0.63272 0.537074,0.009 0.537074,0.009 1.606323,0.35333 1.606324,0.35333 0.556035,0.009 0.556035,0.009 0.494253,-0.49425 0.494253,-0.49425 v -0.69831 -0.6983 l -0.625182,-0.58733 -0.625184,-0.58732 -0.919358,-0.0124 -0.919359,-0.0124 -0.679598,0.19006 -0.679599,0.19005 0.0076,-0.19005 0.0076,-0.19006 1.06683,-0.80316 1.066832,-0.80316 h 0.161161 0.16116 v 0.34721 0.3472 l 1.077012,0.63118 1.077012,0.63117 0.439441,0.67068 0.439453,0.67068 v 0.89905 0.89905 l -0.300722,0.5619 -0.300707,0.56189 -0.819376,0.34236 -0.81937,0.34235 -2.21688,-0.39834 -2.21688,-0.39832 -0.646995,0.16238 -0.646994,0.16239 -0.154569,0.61584 -0.15457,0.61586 0.396062,0.60447 0.396062,0.60447 0.869753,0.16316 0.869752,0.16317 0.429532,-0.12356 0.429534,-0.12357 0.432472,-0.17804 0.432472,-0.17804 v 0.22123 0.22124 l -1.128416,0.94324 -1.128418,0.94323 z m 183.283461,-0.51271 -0.85587,-0.7455 0.88596,0.14735 0.88598,0.14735 1.15282,-1.28222 1.15283,-1.28222 v -0.29317 -0.29318 l -1.23795,-0.94407 -1.23794,-0.94407 -0.33864,0.28104 -0.33863,0.28103 -0.66711,0.96265 -0.66712,0.96265 0.2867,0.53571 0.28671,0.53571 -0.10271,0.10271 -0.10271,0.10272 -1.15297,-0.89828 -1.15299,-0.89829 v -0.20788 -0.20789 l 0.70237,0.14039 0.70235,0.14056 0.90397,-1.05608 0.90396,-1.05608 v -0.18907 -0.18907 l -1.36813,-1.11446 -1.36812,-1.11447 -0.29998,0.11847 -0.29998,0.11847 -0.94693,1.28811 -0.94693,1.28811 0.10611,0.74459 0.10611,0.74459 0.18766,0.43247 0.18765,0.43247 h -0.27005 -0.27006 l -0.65141,-0.98433 -0.6514,-0.98432 2.30221,-2.84615 2.30221,-2.84612 h 0.20784 0.20783 l -0.27033,0.50511 -0.27034,0.50513 0.71648,0.66872 0.71649,0.66874 2.35766,1.91523 2.35767,1.91523 h 0.3507 0.35072 l 0.29655,-0.29655 0.29655,-0.29655 -0.002,0.23477 -0.002,0.23477 -1.99685,2.47127 -1.99685,2.47126 -0.29627,0.30914 -0.29627,0.30914 z m -190.036376,-5.80893 -1.096436,-1.11718 0.758751,0.15183 0.75875,0.15167 0.389961,-0.82622 0.389962,-0.82624 0.870716,-1.91523 0.870719,-1.91523 h -0.228585 -0.228586 l -2.16684,1.00085 -2.166839,1.00085 -0.572574,0.37487 -0.572573,0.37489 0.29888,0.36013 0.298881,0.36012 -0.164473,0.16448 -0.164474,0.16448 -1.229939,-1.21145 -1.229938,-1.21144 v -0.16037 -0.16036 l 0.631401,0.12063 0.6314,0.12063 0.952093,-0.42933 0.952091,-0.42934 0.778055,-1.85356 0.778055,-1.85354 -0.07562,-0.0604 -0.07562,-0.0602 -2.806429,1.32542 -2.806429,1.32541 0.166327,0.67747 0.166327,0.67745 -1.252145,-1.22633 -1.252143,-1.22635 v -0.16037 -0.16036 l 0.620214,0.11862 0.620212,0.11862 4.196288,-2.04993 4.196288,-2.04994 0.131951,0.1319 0.13195,0.1319 -1.241552,2.75174 -1.241551,2.75173 v 0.10843 0.10827 l 2.870996,-1.35421 2.870996,-1.35421 0.09732,0.0973 0.09732,0.0973 -1.996076,4.30134 -1.996076,4.30133 0.133649,0.6796 0.133664,0.6796 h -0.06594 -0.06594 z m 196.657596,-2.4401 -1.17232,-0.81165 0.12742,-0.12743 0.12743,-0.12742 0.92132,0.2376 0.92132,0.23761 0.66667,-0.26236 0.66667,-0.26234 0.40411,-0.61675 0.40412,-0.61675 -0.1489,-0.46885 -0.14874,-0.46886 -0.61605,-0.28069 -0.61606,-0.28069 -1.91224,0.61073 -1.91225,0.61073 -0.82217,0.003 -0.82218,0.003 -0.72236,-0.72237 -0.72237,-0.72237 v -1.18027 -1.18027 l 1.23563,-1.16007 1.23564,-1.16007 v -0.27343 -0.27351 h 0.11985 0.11986 l 1.23936,0.76258 1.23934,0.76258 v 0.11089 0.1109 l -1.19641,-0.1587 -1.1964,-0.15872 -0.77329,0.39989 -0.77329,0.39988 -0.25445,0.47545 -0.25444,0.47544 v 0.35957 0.35956 l 0.45377,0.56039 0.45378,0.56039 0.7741,-0.0221 0.77411,-0.0221 1.6995,-0.54737 1.69951,-0.54735 0.67702,0.16991 0.677,0.16992 0.59676,0.64392 0.59675,0.6439 v 0.71757 0.71756 l -0.36942,0.7144 -0.36942,0.71438 -0.74265,0.43869 -0.74265,0.4387 v 0.44097 0.44096 l -0.18534,-0.0139 -0.18535,-0.0139 z m 30.20972,-80.44234 v -0.22366 l 1.03695,-0.33237 1.03694,-0.33236 0.20932,-0.81692 0.20933,-0.81692 -0.0724,-7.17505 -0.0724,-7.17504 -0.58342,-0.47212 -0.5834,-0.47212 h -0.59045 -0.59043 v -0.37069 -0.37069 h 7.53736 7.53736 v 2.10058 2.10057 h -0.36116 -0.36117 l -0.25561,-0.94926 -0.2556,-0.94926 -0.52078,-0.47171 -0.52077,-0.47172 -3.68142,-0.0845 -3.68143,-0.0845 v 3.60601 3.606 h 2.70677 2.70676 l 0.61275,-0.27918 0.61274,-0.27919 0.24067,-0.64753 0.24065,-0.64755 0.14689,-0.45301 0.14688,-0.45303 0.30877,0.10317 0.30879,0.10318 v 3.19176 3.19178 h -0.33189 -0.33188 l -0.33872,-0.98523 -0.3387,-0.98525 -0.42693,-0.31217 -0.42692,-0.31218 h -2.92456 -2.92458 l 0.0681,3.89224 0.0681,3.89225 2.96552,0.0732 2.96552,0.0732 1.05373,-0.29169 1.05374,-0.29168 0.75708,-0.86227 0.75711,-0.86229 0.26764,-0.58739 0.26762,-0.5874 h 0.48103 0.48103 l -0.13638,0.35522 -0.13638,0.35525 -0.26081,1.00395 -0.26082,1.00397 -0.25665,0.98851 -0.25664,0.9885 h -7.65142 -7.65139 z m -271.720212,-1.56798 -0.112474,-0.30891 -2.608705,-7.27035 -2.6087041,-7.27035 -0.6690538,-1.37908 -0.6690538,-1.37909 -0.7978129,-0.37068 -0.7978129,-0.37069 -0.00541,-0.18535 -0.00541,-0.18534 h 3.4597734 3.4597741 v 0.19602 0.19603 l -0.803162,0.23644 -0.803162,0.23645 -0.07295,0.51004 -0.07293,0.51002 2.126851,5.5391 2.126851,5.53909 0.07171,0.0717 0.07171,0.0717 1.260243,-3.31112 1.260242,-3.31111 0.160421,-0.63918 0.160421,-0.63916 -0.66809,-1.79987 -0.66809,-1.79986 -0.606058,-0.55603 -0.60606,-0.55603 h -0.603905 -0.604034 v -0.24713 -0.24712 h 3.830463 3.830463 v 0.24712 0.24713 h -0.5105 -0.5105 l -0.478007,0.25582 -0.478006,0.25582 v 0.5729 0.5729 l 1.978291,5.12655 1.978292,5.12653 0.202834,0.36245 0.202835,0.36245 1.875885,-5.14386 1.875884,-5.14386 0.147906,-0.67583 0.147905,-0.67585 -0.498016,-0.498 -0.498017,-0.49802 H 26.459673 25.96542 v -0.24713 -0.24712 h 2.718393 2.718394 v 0.21714 0.21715 l -0.774262,0.32071 -0.774262,0.3207 -0.542775,1.25382 -0.542775,1.25381 -2.688408,7.7227 -2.688407,7.72271 h -0.26029 -0.26029 l -1.951875,-5.25144 -1.951874,-5.25144 -0.312192,-0.61782 -0.312192,-0.61781 -0.138144,0.37069 -0.138159,0.37069 -1.837688,5.06609 -1.837688,5.0661 -0.170235,0.43247 -0.170233,0.43247 h -0.228443 -0.228443 z m 49.256773,-91.424503 0.296552,-0.296552 v -0.410979 -0.410978 l -2.69392,-2.505117 -2.69392,-2.505115 h -0.469301 -0.469301 l -0.296552,0.296552 -0.296552,0.296552 v -0.244106 -0.244105 l 0.689052,-0.825375 0.689054,-0.825376 4.156102,0.293678 4.156104,0.293676 0.09318,-0.09318 0.09318,-0.09318 -2.008644,-1.796055 -2.008646,-1.796055 -0.890895,0.162622 -0.890893,0.162623 1.220733,-1.248217 1.220735,-1.248217 0.0967,0.0967 0.0967,0.0967 -0.297654,0.556172 -0.297654,0.556173 3.178851,3.030255 3.17885,3.030256 -0.132475,0.132475 -0.132475,0.132476 -4.683974,-0.338343 -4.683973,-0.338341 -0.07358,0.07099 -0.07358,0.071 2.134049,1.944612 2.134047,1.944613 0.376001,0.212721 0.376004,0.212722 0.590839,-0.269206 0.590842,-0.269205 v 0.170694 0.170692 l -1.03996,1.059642 -1.039962,1.059643 h -0.245126 -0.245098 z m 186.297339,-4.831326 -2.5837,-2.409485 -0.0246,-0.190054 -0.0246,-0.190053 0.57099,0.143302 0.57099,0.143303 2.66711,-2.760629 2.66712,-2.760629 -0.15338,-0.766888 -0.15337,-0.76689 0.93108,0.85177 0.9311,0.851772 1.77834,1.714557 1.77834,1.714559 -0.49776,0.699025 -0.49775,0.699026 h -0.21477 -0.21475 l 0.13175,-0.811425 0.13175,-0.811424 -1.32072,-1.286555 -1.32071,-1.286557 -1.23599,1.242981 -1.23597,1.242981 1.15898,1.101664 1.15897,1.101665 0.66697,-0.25358 0.66696,-0.25358 0.0975,0.09751 0.0975,0.09751 -1.09597,1.206829 -1.09599,1.206829 -0.16788,-0.16418 -0.16789,-0.16418 0.27584,-0.515418 0.27585,-0.515418 -0.24399,-0.455898 -0.24399,-0.455896 -0.89962,-0.686171 -0.8996,-0.686169 -1.21281,1.194558 -1.21279,1.194558 v 0.295298 0.295296 l 1.29308,1.162591 1.29307,1.16259 1.1782,-0.139534 1.17819,-0.139534 -0.002,0.173702 -0.002,0.173703 -0.97377,0.556035 -0.97379,0.556035 h -0.12295 -0.12294 z M 69.336154,60.55923 65.135,58.351168 l -0.556035,0.09442 -0.556035,0.09442 v -0.19363 -0.19363 l 1.173852,-1.006139 1.173851,-1.006138 0.18744,-0.0015 0.187439,-0.0015 -0.301649,0.483014 -0.301647,0.483014 0.114203,0.106542 0.114204,0.106543 2.813897,1.406427 2.813897,1.406429 -0.129742,-0.327885 -0.129741,-0.327885 -0.653558,-1.622822 -0.653574,-1.62282 -1.115581,-0.541992 -1.115579,-0.541991 -0.482592,0.258275 -0.482592,0.258275 v -0.208772 -0.208688 l 1.34282,-1.159203 1.342699,-1.159205 h 0.189486 0.189485 l -0.296552,0.296552 -0.296552,0.296552 v 0.319201 0.3192 l 2.744443,1.376394 2.74445,1.376393 0.0729,-0.07692 0.0729,-0.07692 -0.98582,-2.471268 -0.985803,-2.471267 -0.268689,-0.324794 -0.268688,-0.324796 -0.636151,0.156827 -0.636165,0.156828 0.976891,-1.005884 0.976877,-1.005884 h 0.20167 0.201687 l -0.146268,0.582825 -0.146269,0.582825 1.85447,4.417877 1.854485,4.417877 -0.08047,0.08053 -0.08047,0.08053 -2.770506,-1.38946 -2.770506,-1.389462 -0.07676,0.07692 -0.07676,0.07692 1.104718,2.678309 1.104718,2.678311 -0.07506,0.204223 -0.07507,0.204221 z m 173.958236,-0.03545 0.14025,-1.297415 0.27594,-3.41152 0.27595,-3.41152 -0.11151,-0.111563 -0.11152,-0.111562 -2.14024,2.356191 -2.14024,2.35619 v 0.314299 0.3143 l 0.29243,0.292433 0.29242,0.292433 -0.13066,0.130668 -0.13067,0.130684 -1.15027,-1.012503 -1.15027,-1.012503 v -0.234819 -0.234819 l 0.51083,0.273386 0.51083,0.273385 0.55407,-0.363046 0.55407,-0.363046 2.1798,-2.374672 2.1798,-2.374671 -0.14689,-0.904753 -0.14689,-0.904752 0.92636,0.904556 0.92635,0.904558 -0.31507,4.017764 -0.31505,4.017765 0.069,0.214174 0.0692,0.214175 1.73936,-1.944062 1.73935,-1.944061 0.1777,-0.303802 0.1777,-0.3038 -0.27859,-0.520526 -0.27857,-0.520526 0.0967,-0.0967 0.0967,-0.0967 1.20321,1.221585 1.20321,1.221584 -0.84741,-0.134715 -0.84743,-0.134715 -2.79851,2.985027 -2.79851,2.98503 h -0.24658 -0.24657 z m -85.85685,-42.325877 -6.05389,-7.53193 h -0.20788 -0.20788 l 0.0836,6.251326 0.0836,6.251324 0.43376,0.66149 0.43375,0.661489 0.78508,0.203431 0.78506,0.203432 0.0992,0.297554 0.0992,0.297555 h -3.37739 -3.3774 l 0.0968,-0.290678 0.0968,-0.29068 0.9701,-0.272181 0.97009,-0.27218 0.30916,-0.610992 0.30917,-0.610993 0.003,-7.113586 0.003,-7.1135858 L 149.3765,8.3113226 148.97853,7.7039486 148.0173,7.415958 147.05607,7.1279658 V 6.9199562 6.7119466 h 2.45854 2.45856 l 5.11049,6.3635124 5.11048,6.363511 0.35591,0.37069 0.35593,0.37069 -0.0786,-5.683913 -0.0786,-5.6839137 -0.31311,-0.5476404 -0.31312,-0.547642 -0.98429,-0.2650464 -0.98431,-0.2650449 V 6.9495481 6.7119466 h 3.33621 3.33621 v 0.2376015 0.2376015 l -1.00721,0.2712107 -1.00719,0.2712107 -0.352,0.8424471 -0.35199,0.8424471 v 8.1631178 8.163118 l -0.30891,-0.0054 -0.30891,-0.0054 z"
       id="path1" />
  </g>
</svg>
