<?xml version="1.0" encoding="UTF-8" standalone="no"?>
<svg
   version="1.1"
   width="250"
   height="250"
   id="svg93"
   sodipodi:docname="icon.svg"
   inkscape:version="1.3.1 (1:1.3.1+202311172155+91b66b0783)"
   xmlns:inkscape="http://www.inkscape.org/namespaces/inkscape"
   xmlns:sodipodi="http://sodipodi.sourceforge.net/DTD/sodipodi-0.dtd"
   xmlns="http://www.w3.org/2000/svg"
   xmlns:svg="http://www.w3.org/2000/svg">
  <defs
     id="defs93" />
  <sodipodi:namedview
     id="namedview93"
     pagecolor="#ffffff"
     bordercolor="#666666"
     borderopacity="1.0"
     inkscape:showpageshadow="2"
     inkscape:pageopacity="0.0"
     inkscape:pagecheckerboard="0"
     inkscape:deskcolor="#d1d1d1"
     inkscape:zoom="1.1539983"
     inkscape:cx="57.625736"
     inkscape:cy="184.57567"
     inkscape:window-width="1848"
     inkscape:window-height="1016"
     inkscape:window-x="1992"
     inkscape:window-y="27"
     inkscape:window-maximized="1"
     inkscape:current-layer="svg93" />
  <path
     d="M0 0 C82.5 0 165 0 250 0 C250 82.5 250 165 250 250 C167.5 250 85 250 0 250 C0 167.5 0 85 0 0 Z "
     fill="#FDFDFD"
     transform="translate(0,0)"
     id="path1" />
  <path
     d="M0 0 C0.33 0.33 0.66 0.66 1 1 C3.17731389 1.12401914 5.35863454 1.1780151 7.53930664 1.20532227 C8.56365059 1.22017166 8.56365059 1.22017166 9.60868835 1.23532104 C11.87580853 1.26701935 14.14294969 1.29172613 16.41015625 1.31640625 C17.97815001 1.3369686 19.54613813 1.35796488 21.11412048 1.37937927 C25.24870248 1.43467424 29.38333511 1.48405062 33.51800537 1.53222656 C37.73405483 1.58238753 41.95003043 1.63810174 46.16601562 1.69335938 C54.44394976 1.80103173 62.72194637 1.90194345 71 2 C71 7.61 71 13.22 71 19 C65.39 19 59.78 19 54 19 C54 32.86 54 46.72 54 61 C47.73 61 41.46 61 35 61 C35 47.14 35 33.28 35 19 C30.38 19 25.76 19 21 19 C21.33 19.99 21.66 20.98 22 22 C22.25136656 25.07885945 22.23125601 28.16192753 22.25 31.25 C22.2809375 32.50103516 22.2809375 32.50103516 22.3125 33.77734375 C22.37339174 43.4743531 18.45952286 49.88742647 12 57 C7.90909091 60 7.90909091 60 5 60 C5 60.66 5 61.32 5 62 C1.28709089 63.17544359 -2.25085256 63.13308799 -6.125 63.125 C-7.36507812 63.12757813 -8.60515625 63.13015625 -9.8828125 63.1328125 C-13 63 -13 63 -15 62 C-16.6027098 61.88143364 -18.21005353 61.82293876 -19.81689453 61.79467773 C-20.81778107 61.77473251 -21.8186676 61.75478729 -22.84988403 61.73423767 C-23.93325043 61.71752518 -25.01661682 61.70081268 -26.1328125 61.68359375 C-27.79327103 61.6524221 -27.79327103 61.6524221 -29.48727417 61.62062073 C-33.03311799 61.55509009 -36.57903754 61.49622386 -40.125 61.4375 C-42.5247475 61.39431813 -44.92448727 61.35070395 -47.32421875 61.30664062 C-53.21606925 61.19858939 -59.10797492 61.09954176 -65 61 C-65 46.81 -65 32.62 -65 18 C-74.57 18 -84.14 18 -94 18 C-94 20.31 -94 22.62 -94 25 C-85.75 25 -77.5 25 -69 25 C-69 30.61 -69 36.22 -69 42 C-77.25 42 -85.5 42 -94 42 C-94 48.27 -94 54.54 -94 61 C-107.52392501 63.27043997 -107.52392501 63.27043997 -113 61 C-118.90269925 55.47588853 -122.66618872 48.01380964 -126.35693359 40.90600586 C-128.31371877 37.44514198 -130.68914233 34.23520074 -133 31 C-133.33 40.9 -133.66 50.8 -134 61 C-139.28 61 -144.56 61 -150 61 C-150 41.53 -150 22.06 -150 2 C-144.72 2 -139.44 2 -134 2 C-130.61357311 5.55028625 -129.16895913 7.78543486 -127 12 C-125.30737678 14.64342628 -123.52434051 17.2234632 -121.75 19.8125 C-120.90823543 21.0668536 -120.06955278 22.32328241 -119.234375 23.58203125 C-118.87569336 24.12061768 -118.51701172 24.6592041 -118.14746094 25.21411133 C-116.71445752 27.44441345 -115.36392295 29.72679509 -114 32 C-113.67 22.1 -113.34 12.2 -113 2 C-91.22 2 -69.44 2 -47 2 C-46.505 22.295 -46.505 22.295 -46 43 C-41.05 43.33 -36.1 43.66 -31 44 C-31.99 41.03 -31.99 41.03 -33 38 C-34.03361782 27.85612279 -33.07510255 19.62364152 -27.046875 11.3046875 C-19.37953308 2.10923897 -12.00400778 -1.30757942 0 0 Z "
     fill="#22247E"
     transform="translate(176,95)"
     id="path2" />
  <path
     d="M0 0 C4.89292532 -0.09911652 9.78526221 -0.17158399 14.67895508 -0.21972656 C16.34247013 -0.23980207 18.00591496 -0.26706876 19.66918945 -0.30175781 C22.0647924 -0.35045766 24.45945992 -0.37300856 26.85546875 -0.390625 C27.96513252 -0.42159271 27.96513252 -0.42159271 29.09721375 -0.45318604 C34.1282023 -0.45535636 36.36271924 0.61795324 40 4 C42.13631062 5.16590092 42.13631062 5.16590092 44.328125 6.03515625 C45.12863281 6.36966797 45.92914063 6.70417969 46.75390625 7.04882812 C47.57761719 7.38333984 48.40132812 7.71785156 49.25 8.0625 C50.05824219 8.40087891 50.86648437 8.73925781 51.69921875 9.08789062 C57.06040708 11.30527812 62.46761886 13.25580102 68 15 C69.10601562 15.35964844 70.21203125 15.71929687 71.3515625 16.08984375 C76.3150059 17.32804751 81.30298015 17.93595637 86.375 18.5625 C88.36245877 18.8099805 90.34947145 19.06107986 92.3359375 19.31640625 C93.20782715 19.42412354 94.0797168 19.53184082 94.97802734 19.64282227 C97 20 97 20 98 21 C100.91550663 21.11399924 103.80630023 21.16420966 106.72265625 21.16796875 C108.06196449 21.17296135 108.06196449 21.17296135 109.42832947 21.17805481 C111.33250411 21.18313537 113.23668772 21.18546279 115.14086914 21.18530273 C117.99836989 21.18745177 120.85546028 21.20548865 123.71289062 21.22460938 C142.75322228 21.57571029 142.75322228 21.57571029 161 17 C162.37240171 16.65197699 163.75472227 16.34056692 165.14453125 16.0703125 C165.90443359 15.91433594 166.66433594 15.75835937 167.44726562 15.59765625 C169.01132739 15.28510221 170.57643256 14.97772046 172.14257812 14.67578125 C176.92491836 13.68299163 180.92170699 12.23915241 185.22924805 9.93652344 C188.1406339 8.3967363 191.2228094 7.34475672 194.3125 6.22265625 C196.91366239 5.18530654 196.91366239 5.18530654 198.4609375 3.76831055 C205.53251128 -1.87434936 214.45151994 -0.53889888 223 -0.3125 C224.6497058 -0.28738662 226.2994484 -0.26457881 227.94921875 -0.24414062 C231.96706316 -0.18938229 235.98312198 -0.10328207 240 0 C235.93712894 8.55211357 227.94739575 14.34055156 220.25 19.5 C219.62456299 19.92104004 218.99912598 20.34208008 218.35473633 20.77587891 C214.68531119 23.15591491 211.24864413 24.80099613 207 26 C207 26.66 207 27.32 207 28 C203.96356716 29.17505791 200.92513262 30.34414491 197.8828125 31.50390625 C195.32314868 32.48237299 192.77943872 33.49225608 190.2421875 34.52734375 C181.35744629 38.08803112 172.58119798 40.36193377 163.1796875 42.140625 C160.61237203 42.63112371 158.37864011 43.21466579 155.890625 44.07421875 C152.49818879 45.16071521 149.42809019 45.38215957 145.875 45.5625 C141.46092122 45.72153512 141.46092122 45.72153512 137.14038086 46.50488281 C113.69365819 51.92862566 79.30118836 46.84967792 57 38 C56.23429687 37.7215625 55.46859375 37.443125 54.6796875 37.15625 C50.62904431 35.68328884 46.85896515 33.92948257 43 32 C41.69206243 31.50851627 40.37918729 31.03003771 39.0625 30.5625 C35.11681473 29.11550011 31.58591713 27.17506449 28 25 C27.2265625 24.5565625 26.453125 24.113125 25.65625 23.65625 C15.45872464 17.73916738 5.27919747 10.89338017 0 0 Z "
     fill="#AAC3E3"
     transform="translate(5,159)"
     id="path3" />
  <path
     d="M0 0 C0.80004456 0.00215515 1.60008911 0.0043103 2.42437744 0.00653076 C34.11656082 0.14262299 61.75673216 6.89901959 90.875 19.3125 C90.875 19.9725 90.875 20.6325 90.875 21.3125 C92.14923828 21.66441406 92.14923828 21.66441406 93.44921875 22.0234375 C97.31157096 23.47677414 100.39480133 25.510269 103.6875 27.9375 C104.29698486 28.3811792 104.90646973 28.8248584 105.53442383 29.28198242 C112.30442472 34.27252197 118.59510176 38.97477954 122.875 46.3125 C117.96795249 46.48753188 113.06277935 46.61347857 108.15332031 46.69702148 C106.4889353 46.73189707 104.82475942 46.77941828 103.16113281 46.84057617 C91.59948021 47.25448612 84.60679838 46.11428433 74.875 39.3125 C37.44327736 20.69398486 -15.78153517 21.21938932 -55.125 33.3125 C-67.61394418 37.70190901 -67.61394418 37.70190901 -78.89892578 44.42456055 C-82.76671572 46.68804016 -85.80261393 46.82900547 -90.1484375 46.703125 C-90.89461334 46.69746521 -91.64078918 46.69180542 -92.40957642 46.68597412 C-94.77372637 46.66372898 -97.13631459 46.61355984 -99.5 46.5625 C-101.11065507 46.54241944 -102.72133409 46.5241714 -104.33203125 46.5078125 C-108.26361507 46.46390381 -112.19404352 46.39496318 -116.125 46.3125 C-113.9616264 36.07057062 -100.78715292 29.01165691 -92.58984375 23.65625 C-86.66676955 19.97662229 -80.53865307 17.03169054 -74.125 14.3125 C-72.40796875 13.56806641 -72.40796875 13.56806641 -70.65625 12.80859375 C-62.83023314 9.49306661 -55.06026013 7.09018223 -46.78125 5.171875 C-44.4744333 4.62967449 -42.18099478 4.02289304 -39.91552734 3.32788086 C-35.86724132 2.24345335 -31.97768695 1.64700011 -27.8203125 1.20703125 C-26.64905319 1.08120415 -26.64905319 1.08120415 -25.45413208 0.95283508 C-16.97082899 0.10586426 -8.51952166 -0.04180071 0 0 Z "
     fill="#A73B39"
     transform="translate(122.125,47.6875)"
     id="path4" />
  <path
     d="M0 0 C0.33 0.33 0.66 0.66 1 1 C3.57021843 1.10094226 6.11298032 1.13971237 8.68359375 1.1328125 C9.45429703 1.13376923 10.22500031 1.13472595 11.01905823 1.13571167 C12.65243613 1.13639349 14.28581673 1.13453909 15.91918945 1.13037109 C18.42340172 1.12503007 20.92743403 1.13031224 23.43164062 1.13671875 C25.0156254 1.13605783 26.59961006 1.13477637 28.18359375 1.1328125 C28.9357164 1.13483673 29.68783905 1.13686096 30.4627533 1.13894653 C34.35931999 1.19696364 34.35931999 1.19696364 38 0 C38.33 1.65 38.66 3.3 39 5 C29.89040835 5.02312545 20.78082674 5.04091612 11.6712122 5.05181217 C7.44168629 5.05704056 3.2121804 5.0641374 -1.01733398 5.07543945 C-5.09568543 5.08626991 -9.17401757 5.09227717 -13.25238228 5.09487724 C-14.81177639 5.09673121 -16.3711694 5.10035127 -17.93055534 5.10573006 C-20.10729162 5.11294262 -22.28394714 5.11399085 -24.46069336 5.11352539 C-26.32267616 5.11685631 -26.32267616 5.11685631 -28.22227478 5.12025452 C-31 5 -31 5 -32 4 C-39.35947769 3.19834261 -45.79550751 3.7841269 -52 8 C-59.00632924 14.121188 -63.55486698 21.16166114 -64.26953125 30.53515625 C-64.33453356 36.15490175 -64.03052126 41.47037374 -63 47 C-65.47923801 47.02685095 -67.9581884 47.04676547 -70.4375 47.0625 C-71.14455078 47.07087891 -71.85160156 47.07925781 -72.58007812 47.08789062 C-74.38693559 47.09653588 -76.19387603 47.05220011 -78 47 C-79 46 -79 46 -79.11352539 42.12280273 C-79.11327423 40.39305834 -79.10771043 38.66330895 -79.09765625 36.93359375 C-79.09664917 36.1286145 -79.09564209 35.32363525 -79.09460449 34.4942627 C-79.08935614 31.47532739 -79.075395 28.45641233 -79.0625 25.4375 C-79.041875 18.693125 -79.02125 11.94875 -79 5 C-100.78 5 -122.56 5 -145 5 C-145 15.23 -145 25.46 -145 36 C-148.07196219 32.92803781 -150.32312869 29.66918342 -152.6875 26.0625 C-153.35821533 25.0712915 -153.35821533 25.0712915 -154.04248047 24.06005859 C-156.16632657 20.9034819 -158.16522564 17.78215555 -159.87109375 14.37890625 C-161.75787211 10.60496943 -161.75787211 10.60496943 -166 6 C-171.28 5.67 -176.56 5.34 -182 5 C-182 24.47 -182 43.94 -182 64 C-184 62 -184 62 -184.24050903 59.55758667 C-184.2338472 58.01870285 -184.2338472 58.01870285 -184.22705078 56.44873047 C-184.22689972 55.28767792 -184.22674866 54.12662537 -184.22659302 52.9303894 C-184.21627045 51.67203278 -184.20594788 50.41367615 -184.1953125 49.1171875 C-184.1924826 47.83264679 -184.18965271 46.54810608 -184.18673706 45.22463989 C-184.17909809 41.80837233 -184.15944752 38.39227463 -184.1373291 34.97607422 C-184.11687624 31.49058327 -184.10773655 28.0050649 -184.09765625 24.51953125 C-184.07620175 17.67961769 -184.04206271 10.839817 -184 4 C-185.65 4 -187.3 4 -189 4 C-189 23.8 -189 43.6 -189 64 C-194.28 64 -199.56 64 -205 64 C-205 44.2 -205 24.4 -205 4 C-204.34 4 -203.68 4 -203 4 C-202.67 2.68 -202.34 1.36 -202 0 C-202 0.66 -202 1.32 -202 2 C-197.33999309 2.00537664 -192.6824518 1.97118926 -188.02294922 1.90234375 C-186.44230508 1.88431971 -184.86150519 1.87659028 -183.28076172 1.87988281 C-174.46755266 1.89103172 -167.61300648 1.86193031 -160.19238281 -3.43603516 C-148.6813094 -11.64760935 -132.72825842 -14.86649552 -119 -17 C-118.28150879 -17.11569336 -117.56301758 -17.23138672 -116.82275391 -17.35058594 C-77.14575236 -23.43252795 -35.44472103 -19.08966429 0 0 Z "
     fill="#F9F8F9"
     transform="translate(208,92)"
     id="path5" />
  <path
     d="M0 0 C1.97379354 1.97379354 1.67537563 5.60137929 2 8.3125 C2.68876631 14.21338796 2.68876631 14.21338796 4 20 C5.98 20.495 5.98 20.495 8 21 C3.02927901 22.84100777 -1.79660274 24.18356016 -7.00732422 25.18457031 C-15.1676082 26.78713425 -22.60860626 29.20426393 -30.25 32.5 C-31.57112793 33.06968506 -31.57112793 33.06968506 -32.91894531 33.65087891 C-36.50573882 35.2507685 -39.63765526 36.72469683 -42.78271484 39.11425781 C-46.64557436 41.37838947 -49.68159213 41.51639024 -54.0234375 41.390625 C-54.76961334 41.38496521 -55.51578918 41.37930542 -56.28457642 41.37347412 C-58.64872637 41.35122898 -61.01131459 41.30105984 -63.375 41.25 C-64.98565507 41.22991944 -66.59633409 41.2116714 -68.20703125 41.1953125 C-72.13861507 41.15140381 -76.06904352 41.08246318 -80 41 C-77.8366264 30.75807062 -64.66215292 23.69915691 -56.46484375 18.34375 C-40.1698891 8.22073539 -19.52799788 -0.97639989 0 0 Z "
     fill="#AA2C2A"
     transform="translate(86,53)"
     id="path6" />
  <path
     d="M0 0 C17.85479127 -1.54512617 34.98201488 7.29390575 51 14 C51 14.66 51 15.32 51 16 C51.84949219 16.23460938 52.69898438 16.46921875 53.57421875 16.7109375 C57.43657096 18.16427414 60.51980133 20.197769 63.8125 22.625 C64.42198486 23.0686792 65.03146973 23.5123584 65.65942383 23.96948242 C72.42942472 28.96002197 78.72010176 33.66227954 83 41 C78.09295249 41.17503188 73.18777935 41.30097857 68.27832031 41.38452148 C66.6139353 41.41939707 64.94975942 41.46691828 63.28613281 41.52807617 C53.29728586 41.8856793 46.03395274 41.74330182 37.55786133 35.7355957 C34.02740796 33.3400633 30.32248755 32.18115618 26.27734375 30.921875 C23.8895759 29.95530002 22.66120067 28.9389752 21 27 C21.33 26.01 21.66 25.02 22 24 C22.31661477 18.58961227 22.11873451 13.31398894 21 8 C16.91808355 7.26332963 16.91808355 7.26332963 13 8 C9.69134891 11.83069839 7.59278602 16.22164195 6 21 C7.65 21.33 9.3 21.66 11 22 C11 22.33 11 22.66 11 23 C5.57960425 23.40652968 1.92984325 22.03993514 -3 20 C-2.690625 18.741875 -2.38125 17.48375 -2.0625 16.1875 C-0.85947548 10.82934823 -0.38848904 5.4695168 0 0 Z "
     fill="#A82F2D"
     transform="translate(162,53)"
     id="path7" />
  <path
     d="M0 0 C1.65 0.33 3.3 0.66 5 1 C5 1.99 5 2.98 5 4 C4.34 4 3.68 4 3 4 C3 4.99 3 5.98 3 7 C3.99 7 4.98 7 6 7 C6 5.68 6 4.36 6 3 C7.32 3.33 8.64 3.66 10 4 C10.5625 5.9375 10.5625 5.9375 11 8 C10.67 8.33 10.34 8.66 10 9 C9.63239269 11.32817964 9.29758419 13.6618385 9 16 C9.66 16 10.32 16 11 16 C11.66 12.37 12.32 8.74 13 5 C14.65 5 16.3 5 18 5 C17.34 9.29 16.68 13.58 16 18 C14.35 18 12.7 18 11 18 C11 19.32 11 20.64 11 22 C14.3 22.33 17.6 22.66 21 23 C21.144375 21.96875 21.28875 20.9375 21.4375 19.875 C21.91660457 16.57450187 22.43875083 13.28731659 23 10 C22.01 10 21.02 10 20 10 C20 8.68 20 7.36 20 6 C21.41702513 6.14230808 22.8336096 6.28900746 24.25 6.4375 C25.43335938 6.55931641 25.43335938 6.55931641 26.640625 6.68359375 C28.82364639 6.97634993 30.8773182 7.42064419 33 8 C33 9.32 33 10.64 33 12 C31.68 12 30.36 12 29 12 C28.67 14.64 28.34 17.28 28 20 C26.35 20.66 24.7 21.32 23 22 C26.26613695 23.91302307 28.99445248 24.35674661 32.75 24.625 C33.73484375 24.69976562 34.7196875 24.77453125 35.734375 24.8515625 C36.48203125 24.90054688 37.2296875 24.94953125 38 25 C37.34644531 24.58492187 36.69289062 24.16984375 36.01953125 23.7421875 C34 22 34 22 33.6875 18.125 C33.84260317 15.01144744 34.2423896 12.03044161 35 9 C36.65 9 38.3 9 40 9 C40 11.97 40 14.94 40 18 C40.66 18 41.32 18 42 18 C42 15.36 42 12.72 42 10 C44.64 10 47.28 10 50 10 C50.495 10.99 50.495 10.99 51 12 C51.33 11.67 51.66 11.34 52 11 C54.33297433 10.95907063 56.66705225 10.95758277 59 11 C59 15.29 59 19.58 59 24 C59.66 24 60.32 24 61 24 C61 19.71 61 15.42 61 11 C64.96 11 68.92 11 73 11 C73 11.99 73 12.98 73 14 C71.02 14 69.04 14 67 14 C67 14.66 67 15.32 67 16 C68.65 16 70.3 16 72 16 C72 16.99 72 17.98 72 19 C70.35 19 68.7 19 67 19 C67 19.66 67 20.32 67 21 C68.98 21 70.96 21 73 21 C73 21.99 73 22.98 73 24 C69.7 24.33 66.4 24.66 63 25 C63.495 25.99 63.495 25.99 64 27 C66.71446979 27.31241455 69.33909361 27.51336592 72.0625 27.625 C72.82111328 27.66367188 73.57972656 27.70234375 74.36132812 27.7421875 C76.24047195 27.83673562 78.12020336 27.91946756 80 28 C80 28.33 80 28.66 80 29 C54.01751115 29.39017253 26.54245583 29.75504553 2 20 C1.1646875 19.68675781 0.329375 19.37351563 -0.53125 19.05078125 C-2.35416667 18.3671875 -4.17708333 17.68359375 -6 17 C-6 16.34 -6 15.68 -6 15 C-5.34 15 -4.68 15 -4 15 C-3.896875 14.01 -3.79375 13.02 -3.6875 12 C-3.09191294 7.71702837 -1.61404973 4.00003629 0 0 Z "
     fill="#C4D5E9"
     transform="translate(60,177)"
     id="path8" />
  <path
     d="M0 0 C5.28 0 10.56 0 16 0 C16 19.47 16 38.94 16 59 C10.72 59 5.44 59 0 59 C0 39.53 0 20.06 0 0 Z "
     fill="#26287E"
     transform="translate(3,97)"
     id="path9" />
  <path
     d="M0 0 C0 0.33 0 0.66 0 1 C-2.31 1 -4.62 1 -7 1 C-6.67 2.65 -6.34 4.3 -6 6 C-4.35 6 -2.7 6 -1 6 C-0.67 9.3 -0.34 12.6 0 16 C0.99 16 1.98 16 3 16 C2.67 12.37 2.34 8.74 2 5 C3.65 5 5.3 5 7 5 C10.31707317 15.36585366 10.31707317 15.36585366 8 20 C11.11627055 21.81725255 13.36126392 22.2455605 16.95214844 22.22705078 C17.93286316 22.22689972 18.91357788 22.22674866 19.92401123 22.22659302 C20.97518127 22.21627045 22.02635132 22.20594788 23.109375 22.1953125 C24.19132141 22.1924826 25.27326782 22.18965271 26.38800049 22.18673706 C29.84211304 22.17554609 33.29596588 22.1504432 36.75 22.125 C39.09244417 22.11496881 41.43489241 22.1058432 43.77734375 22.09765625 C49.51832917 22.07561025 55.25912056 22.04108755 61 22 C61.33 16.72 61.66 11.44 62 6 C63.65 6 65.3 6 67 6 C67.09688221 11.44693314 67.12862175 16.63904667 66 22 C67.0725 22.495 68.145 22.99 69.25 23.5 C69.85328125 23.7784375 70.4565625 24.056875 71.078125 24.34375 C73.29242836 25.21542924 73.29242836 25.21542924 77 25 C75.515 24.505 75.515 24.505 74 24 C74.65695447 20.73762382 75.85873945 18.19901928 77.5 15.3125 C78.16515625 14.13107422 78.16515625 14.13107422 78.84375 12.92578125 C80 11 80 11 81 10 C83.69082872 10.17635452 86.32851446 10.61835921 89 11 C91.20440155 16.23545369 91.65684458 21.38784265 91 27 C90.01 28.485 90.01 28.485 89 30 C90.485 30.495 90.485 30.495 92 31 C90 32 90 32 88.21166992 31.51611328 C87.13816284 31.10981689 87.13816284 31.10981689 86.04296875 30.6953125 C80.87067075 28.87854929 75.70233672 27.82861584 70.3125 26.875 C69.42111328 26.70613281 68.52972656 26.53726563 67.61132812 26.36328125 C55.51205848 24.1790492 43.35281692 23.8308452 31.08374023 23.86962891 C29.03947766 23.87506118 26.99542849 23.86960344 24.95117188 23.86328125 C23.63826172 23.86457031 22.32535156 23.86585937 20.97265625 23.8671875 C19.21320679 23.86887939 19.21320679 23.86887939 17.41821289 23.87060547 C13.88344193 24.00441224 10.49185138 24.44850117 7 25 C3.1423974 25.40087523 0.02692737 25.64858571 -3.375 23.5 C-7.12408106 17.73218298 -7.37293305 10.68871414 -8 4 C-11.3 4 -14.6 4 -18 4 C-12.23759526 0.15839684 -6.70842135 -0.23538321 0 0 Z "
     fill="#A34341"
     transform="translate(94,50)"
     id="path10" />
  <path
     d="M0 0 C1.97379354 1.97379354 1.67537563 5.60137929 2 8.3125 C2.68876631 14.21338796 2.68876631 14.21338796 4 20 C5.32 20.33 6.64 20.66 8 21 C-9.71217712 27.49446494 -9.71217712 27.49446494 -15.10546875 25.04296875 C-15.73066406 24.69878906 -16.35585937 24.35460937 -17 24 C-18.32 24 -19.64 24 -21 24 C-22.40454548 17.88019467 -23.23268915 12.28260706 -23 6 C-23.9075 6.350625 -24.815 6.70125 -25.75 7.0625 C-29.00591313 8.00170571 -29.92749994 7.95514676 -33 7 C-22.25853343 2.46569239 -11.79363978 -0.58968199 0 0 Z "
     fill="#A72F2D"
     transform="translate(86,53)"
     id="path11" />
  <path
     d="M0 0 C1.54204102 0.00966797 1.54204102 0.00966797 3.11523438 0.01953125 C4.18708984 0.03628906 5.25894531 0.05304688 6.36328125 0.0703125 C7.44673828 0.07933594 8.53019531 0.08835938 9.64648438 0.09765625 C12.32313835 0.1212391 14.99934922 0.15415124 17.67578125 0.1953125 C13.75219848 8.38820576 6.37142768 13.67442961 -1.01171875 18.6328125 C-1.64102295 19.05771973 -2.27032715 19.48262695 -2.91870117 19.92041016 C-6.60678747 22.32346757 -10.04558322 23.99256242 -14.32421875 25.1953125 C-14.32421875 25.8553125 -14.32421875 26.5153125 -14.32421875 27.1953125 C-24.69779506 31.78756763 -24.69779506 31.78756763 -30.32421875 31.1953125 C-28.57421875 27.3203125 -28.57421875 27.3203125 -26.32421875 26.1953125 C-24.32461863 26.1553205 -22.32374633 26.15184451 -20.32421875 26.1953125 C-19.99421875 25.2053125 -19.66421875 24.2153125 -19.32421875 23.1953125 C-18.66421875 23.1953125 -18.00421875 23.1953125 -17.32421875 23.1953125 C-17.32421875 22.2053125 -17.32421875 21.2153125 -17.32421875 20.1953125 C-19.30421875 20.1953125 -21.28421875 20.1953125 -23.32421875 20.1953125 C-23.65421875 18.5453125 -23.98421875 16.8953125 -24.32421875 15.1953125 C-23.68484375 15.0921875 -23.04546875 14.9890625 -22.38671875 14.8828125 C-21.70609375 14.6559375 -21.02546875 14.4290625 -20.32421875 14.1953125 C-19.99421875 13.2053125 -19.66421875 12.2153125 -19.32421875 11.1953125 C-18.17472287 11.98165172 -17.02972886 12.77457508 -15.88671875 13.5703125 C-15.24863281 14.01117188 -14.61054688 14.45203125 -13.953125 14.90625 C-12.32421875 16.1953125 -12.32421875 16.1953125 -11.32421875 18.1953125 C-10.00421875 18.1953125 -8.68421875 18.1953125 -7.32421875 18.1953125 C-7.4840625 17.66164062 -7.64390625 17.12796875 -7.80859375 16.578125 C-8.43027873 13.70518682 -8.53089701 11.00897041 -8.57421875 8.0703125 C-8.6 7.01585937 -8.62578125 5.96140625 -8.65234375 4.875 C-8.5440625 3.99070313 -8.43578125 3.10640625 -8.32421875 2.1953125 C-4.97302356 -0.03881763 -3.90644325 -0.04316512 0 0 Z "
     fill="#A7C1E3"
     transform="translate(226.32421875,159.8046875)"
     id="path12" />
  <path
     d="M0 0 C3.61694177 0.07328102 5.92637181 0.39193731 8.8125 2.625 C11.38162904 5.58937966 12.07176977 6.60555004 12.25 10.4375 C12.37375 11.71625 12.4975 12.995 12.625 14.3125 C12.58925828 19.02147203 10.43956866 22.10295094 7.25 25.4375 C3.76982692 27.17758654 0.04693185 27.02214868 -3.75 26.4375 C-7.47061194 23.66683153 -9.59978227 20.93380566 -10.75 16.4375 C-11.33845418 10.25873114 -10.77833345 7.41367661 -6.75 2.4375 C-4.29006058 -0.02243942 -3.39998115 0.08757527 0 0 Z "
     fill="#F6F6F9"
     transform="translate(169.75,113.5625)"
     id="path13" />
  <path
     d="M0 0 C0 0.33 0 0.66 0 1 C-2.64 1 -5.28 1 -8 1 C-8 4.63 -8 8.26 -8 12 C-8.33 12 -8.66 12 -9 12 C-9 9.36 -9 6.72 -9 4 C-10.65 4 -12.3 4 -14 4 C-14.33 9.28 -14.66 14.56 -15 20 C-23.3984375 20.1953125 -23.3984375 20.1953125 -26 20 C-26.66 19.34 -27.32 18.68 -28 18 C-30.65537372 17.43479997 -33.29144713 17.26211802 -36 17 C-36 15.68 -36 14.36 -36 13 C-34.02 13 -32.04 13 -30 13 C-30 12.34 -30 11.68 -30 11 C-30.804375 10.855625 -31.60875 10.71125 -32.4375 10.5625 C-35 10 -35 10 -36 9 C-36.1328125 7.1875 -36.1328125 7.1875 -36.125 5 C-36.12757813 4.278125 -36.13015625 3.55625 -36.1328125 2.8125 C-36 1 -36 1 -35 0 C-32.33333333 0 -29.66666667 0 -27 0 C-26.67 -0.33 -26.34 -0.66 -26 -1 C-17.22266837 -2.72411871 -8.75861045 -1.216753 0 0 Z "
     fill="#A93735"
     transform="translate(170,52)"
     id="path14" />
  <path
     d="M0 0 C7.26 0 14.52 0 22 0 C21 7 21 7 19 10 C19 10.99 19 11.98 19 13 C19.99 13.33 20.98 13.66 22 14 C22.66 12.02 23.32 10.04 24 8 C24.82638376 10.89234315 25 12.88742431 25 16 C28.79588866 15.45773019 30.47211993 13.79872437 33 11 C32.690625 11.7425 32.38125 12.485 32.0625 13.25 C31.1905075 15.50692176 30.52332993 17.6450153 30 20 C30.99 20.33 31.98 20.66 33 21 C33.66 19.02 34.32 17.04 35 15 C35.495 15.99 35.495 15.99 36 17 C36.99 17.33 37.98 17.66 39 18 C38.505 18.45375 38.01 18.9075 37.5 19.375 C35.77390663 20.87635519 35.77390663 20.87635519 36 23 C38.64 23 41.28 23 44 23 C44 24.65 44 26.3 44 28 C45.32 28.66 46.64 29.32 48 30 C48 30.99 48 31.98 48 33 C40.28211856 31.09145665 33.83529144 28.01499927 27 24 C25.71222656 23.26910156 25.71222656 23.26910156 24.3984375 22.5234375 C15.43400771 17.33350447 3.4532373 10.3597119 0 0 Z "
     fill="#ADC4E0"
     transform="translate(6,160)"
     id="path15" />
  <path
     d="M0 0 C1.32 0 2.64 0 4 0 C5.2359135 4.55743102 6 8.28209216 6 13 C6.66 13.66 7.32 14.32 8 15 C5.39802798 16.00605593 2.79370638 17.00502525 0.1875 18 C-0.55048828 18.28617188 -1.28847656 18.57234375 -2.04882812 18.8671875 C-2.76103516 19.13789063 -3.47324219 19.40859375 -4.20703125 19.6875 C-4.8616333 19.93886719 -5.51623535 20.19023437 -6.19067383 20.44921875 C-8 21 -8 21 -11 21 C-11 20.34 -11 19.68 -11 19 C-13.97 19 -16.94 19 -20 19 C-22.28571429 10.57142857 -22.28571429 10.57142857 -22 6 C-18.38026598 4.68373308 -15.90432869 4 -12 4 C-11.67 4.99 -11.34 5.98 -11 7 C-10.79375 6.195625 -10.5875 5.39125 -10.375 4.5625 C-9.92125 3.716875 -9.4675 2.87125 -9 2 C-5.875 1.1875 -5.875 1.1875 -3 1 C-2.01 2.65 -1.02 4.3 0 6 C0 4.02 0 2.04 0 0 Z "
     fill="#B4C9E2"
     transform="translate(191,177)"
     id="path16" />
  <path
     d="M0 0 C0 3.3 0 6.6 0 10 C1.98 10.66 3.96 11.32 6 12 C6 12.33 6 12.66 6 13 C3.69 13 1.38 13 -1 13 C-0.67 14.32 -0.34 15.64 0 17 C2.31 17.33 4.62 17.66 7 18 C7 18.33 7 18.66 7 19 C11.62 19 16.24 19 21 19 C21 18.67 21 18.34 21 18 C23.97 18 26.94 18 30 18 C30.495 19.485 30.495 19.485 31 21 C14.83 21.33 -1.34 21.66 -18 22 C-18 21.67 -18 21.34 -18 21 C-16.02 20.67 -14.04 20.34 -12 20 C-11.17377329 14.39436958 -10.93204344 9.57710648 -12 4 C-13.65 4 -15.3 4 -17 4 C-16.67 7.63 -16.34 11.26 -16 15 C-16.99 15 -17.98 15 -19 15 C-19.33 11.7 -19.66 8.4 -20 5 C-21.65 5 -23.3 5 -25 5 C-25.33 3.68 -25.66 2.36 -26 1 C-17.3387414 -0.25981943 -8.72998757 -0.09020653 0 0 Z "
     fill="#A72B29"
     transform="translate(113,51)"
     id="path17" />
  <path
     d="M0 0 C0 0.33 0 0.66 0 1 C-2.31 1 -4.62 1 -7 1 C-6.67 2.65 -6.34 4.3 -6 6 C-4.35 6 -2.7 6 -1 6 C-0.67 9.3 -0.34 12.6 0 16 C0.99 16 1.98 16 3 16 C2.67 12.37 2.34 8.74 2 5 C3.65 5 5.3 5 7 5 C10.31707317 15.36585366 10.31707317 15.36585366 8 20 C11.69720477 22.39147637 15.26316078 22.24245553 19.51171875 22.16015625 C20.23937943 22.15495468 20.9670401 22.14975311 21.7167511 22.14439392 C24.04053979 22.12662826 26.36388191 22.09551895 28.6875 22.0625 C31.73303963 22.02575285 34.77854229 21.99542587 37.82421875 21.97265625 C38.54858124 21.96706696 39.27294373 21.96147766 40.01925659 21.95571899 C45.09820257 21.94128205 49.97948002 22.25983191 55 23 C55 23.33 55 23.66 55 24 C53.794646 23.99476318 52.58929199 23.98952637 51.34741211 23.98413086 C46.85409291 23.96596246 42.36077693 23.95452485 37.86743164 23.94506836 C35.92667087 23.94005515 33.98591384 23.93324288 32.04516602 23.92456055 C29.24754916 23.91236268 26.44998245 23.90674145 23.65234375 23.90234375 C22.7916478 23.89718246 21.93095184 23.89202118 21.04417419 23.88670349 C16.26301451 23.88626327 11.7310641 24.20819647 7 25 C3.1423974 25.40087523 0.02692737 25.64858571 -3.375 23.5 C-7.12408106 17.73218298 -7.37293305 10.68871414 -8 4 C-11.3 4 -14.6 4 -18 4 C-12.23759526 0.15839684 -6.70842135 -0.23538321 0 0 Z "
     fill="#BD7372"
     transform="translate(94,50)"
     id="path18" />
  <path
     d="M0 0 C0.66 0.33 1.32 0.66 2 1 C1.34 1.804375 0.68 2.60875 0 3.4375 C-2.10254514 5.58961915 -2.10254514 5.58961915 -2 7 C-7.28 7 -12.56 7 -18 7 C-18 26.47 -18 45.94 -18 66 C-20 64 -20 64 -20.24050903 61.55758667 C-20.2338472 60.01870285 -20.2338472 60.01870285 -20.22705078 58.44873047 C-20.22689972 57.28767792 -20.22674866 56.12662537 -20.22659302 54.9303894 C-20.21627045 53.67203278 -20.20594788 52.41367615 -20.1953125 51.1171875 C-20.1924826 49.83264679 -20.18965271 48.54810608 -20.18673706 47.22463989 C-20.17909809 43.80837233 -20.15944752 40.39227463 -20.1373291 36.97607422 C-20.11687624 33.49058327 -20.10773655 30.0050649 -20.09765625 26.51953125 C-20.07620175 19.67961769 -20.04206271 12.839817 -20 6 C-20.7427417 6.16298584 -21.4854834 6.32597168 -22.25073242 6.49389648 C-25.94053521 7.17314 -29.57671425 7.10590055 -33.3125 7.0625 C-34.05306641 7.05798828 -34.79363281 7.05347656 -35.55664062 7.04882812 C-37.37112899 7.03712175 -39.18557534 7.01918898 -41 7 C-40.34 6.67 -39.68 6.34 -39 6 C-38.34786708 3.97536745 -38.34786708 3.97536745 -38 2 C-38 2.66 -38 3.32 -38 4 C-33.2306059 3.93107152 -28.46208424 3.84308144 -23.69335938 3.73754883 C-22.07171314 3.70433165 -20.44995219 3.67628965 -18.828125 3.65356445 C-16.49429523 3.61995845 -14.16151365 3.5676424 -11.828125 3.51171875 C-10.74352997 3.50213387 -10.74352997 3.50213387 -9.63702393 3.49235535 C-5.49606888 3.37188752 -3.01382388 2.92859131 0 0 Z "
     fill="#DFDDEF"
     transform="translate(44,90)"
     id="path19" />
  <path
     d="M0 0 C0.66 0 1.32 0 2 0 C2 13.53 2 27.06 2 41 C5.57457031 40.98839844 9.14914063 40.97679687 12.83203125 40.96484375 C16.28718985 40.95704902 19.74234748 40.95097462 23.19750977 40.94506836 C25.60213661 40.94003402 28.00676038 40.93320614 30.41137695 40.92456055 C33.86410275 40.91245571 37.31678814 40.90676274 40.76953125 40.90234375 C41.84773636 40.89718246 42.92594147 40.89202118 44.03681946 40.88670349 C45.53803596 40.88659019 45.53803596 40.88659019 47.06958008 40.88647461 C48.39195427 40.88314369 48.39195427 40.88314369 49.74104309 40.87974548 C52 41 52 41 55 42 C57.05893621 42.22325814 59.12233653 42.40705759 61.1875 42.5625 C62.27417969 42.64628906 63.36085937 42.73007813 64.48046875 42.81640625 C65.31191406 42.87699219 66.14335937 42.93757813 67 43 C66.505 43.99 66.505 43.99 66 45 C63.70839681 45.02692484 61.41670454 45.04636124 59.125 45.0625 C57.84882813 45.07410156 56.57265625 45.08570313 55.2578125 45.09765625 C52 45 52 45 50 44 C48.3972902 43.88143364 46.78994647 43.82293876 45.18310547 43.79467773 C44.18221893 43.77473251 43.1813324 43.75478729 42.15011597 43.73423767 C41.06674957 43.71752518 39.98338318 43.70081268 38.8671875 43.68359375 C37.20672897 43.6524221 37.20672897 43.6524221 35.51272583 43.62062073 C31.96688201 43.55509009 28.42096246 43.49622386 24.875 43.4375 C22.4752525 43.39431813 20.07551273 43.35070395 17.67578125 43.30664062 C11.78393075 43.19858939 5.89202508 43.09954176 0 43 C0 28.81 0 14.62 0 0 Z "
     fill="#454582"
     transform="translate(111,113)"
     id="path20" />
  <path
     d="M0 0 C7.26 0 14.52 0 22 0 C21 7 21 7 19 10 C18.61500109 11.65549531 18.27206865 13.3222433 18 15 C12.54009912 14.61907668 10.59156321 13.02955872 7 9 C5.12536569 7.17634947 3.2406039 5.3635658 1.35546875 3.55078125 C0 2 0 2 0 0 Z "
     fill="#A7C2E3"
     transform="translate(6,160)"
     id="path21" />
  <path
     d="M 0,0 4.1382641,0.1321435 8.2777974,6.1806184 11.994442,1.0665749 C 14.327416,1.0256455 14.667052,0.95758277 17,1 V 14 H 12 L 12.006202,7.9690309 8.9668237,12.696782 6.0819809,12.84306 3.5878724,7.5068271 3,13 H 0 Z"
     fill="#ecf3f9"
     transform="translate(102,187)"
     id="path22"
     sodipodi:nodetypes="cccccccccccccc" />
  <path
     d="m 0,0 h 2 v 10 h 2 v 4 C 2.3125,14.8125 2.3125,14.8125 0,15 -2.5625,12.6875 -2.5625,12.6875 -5,10 L -9.5210026,5.3637867 -8.3212083,9.7744256 -12,11 v 4 l 6,1 v 3 c -3.4502904,2.300194 -4.945544,2.431325 -9,2 -2.46396,-3.695941 -2.667166,-6.711076 -2,-11 1.717189,-2.8370941 3.112729,-3.734277 6.269531,-4.6796875 C -8.4933328,4.8059474 -6.2654019,4.3678858 -4,4 l 1,3 h 2 L -1.0625,4.0625 C -1,1 -1,1 0,0 Z"
     fill="#f0f7fb"
     transform="translate(215,164)"
     id="path23"
     sodipodi:nodetypes="ccccccccccccccccccccc" />
  <path
     d="M0 0 C2 1 4 2 6 3 C6 4.98 6 6.96 6 9 C6.66 8.01 7.32 7.02 8 6 C12.75 6.875 12.75 6.875 15 8 C14.35550393 11.01217112 13.34977818 13.51655836 11.9375 16.25 C11.57527344 16.95640625 11.21304688 17.6628125 10.83984375 18.390625 C10.56269531 18.92171875 10.28554688 19.4528125 10 20 C8.68 19.67 7.36 19.34 6 19 C6.33 18.21625 6.66 17.4325 7 16.625 C8.11866511 14.15667503 8.11866511 14.15667503 8 12 C7.01 13.32 6.02 14.64 5 16 C3.68 15.67 2.36 15.34 1 15 C1 13.02 1 11.04 1 9 C0.34 10.32 -0.32 11.64 -1 13 C-2.32 12.67 -3.64 12.34 -5 12 C-4.35550393 8.98782888 -3.34977818 6.48344164 -1.9375 3.75 C-1.57527344 3.04359375 -1.21304687 2.3371875 -0.83984375 1.609375 C-0.56269531 1.07828125 -0.28554688 0.5471875 0 0 Z "
     fill="#EFF6FA"
     transform="translate(29,161)"
     id="path24" />
  <path
     d="M0 0 C0.50757862 1.41396902 1.00574925 2.83131729 1.5 4.25 C1.7784375 5.03890625 2.056875 5.8278125 2.34375 6.640625 C3 9 3 9 3 13 C1.35 12.67 -0.3 12.34 -2 12 C-2 11.34 -2 10.68 -2 10 C-2.99 10 -3.98 10 -5 10 C-5 11.98 -5 13.96 -5 16 C-6.32 16 -7.64 16 -9 16 C-9.50471197 14.23050388 -10.00360685 12.45934777 -10.5 10.6875 C-10.7784375 9.70136719 -11.056875 8.71523437 -11.34375 7.69921875 C-12 5 -12 5 -12 2 C-7.8803623 0.70756464 -4.33168317 -0.26252625 0 0 Z "
     fill="#F9E9E8"
     transform="translate(76,60)"
     id="path25" />
  <path
     d="M0 0 C1.32 0 2.64 0 4 0 C5.13764351 4.26616316 6 7.56486311 6 12 C3.69 12.33 1.38 12.66 -1 13 C-1.33 11.35 -1.66 9.7 -2 8 C-2.66 8 -3.32 8 -4 8 C-3.67 9.98 -3.34 11.96 -3 14 C-4.32 14.33 -5.64 14.66 -7 15 C-7.99 11.04 -8.98 7.08 -10 3 C-6 1 -6 1 -3.875 1.125 C-1.424863 2.26839727 -0.95567383 3.53117594 0 6 C0 4.02 0 2.04 0 0 Z "
     fill="#EEF5F9"
     transform="translate(191,177)"
     id="path26" />
  <path
     d="M0 0 C2.31 0.33 4.62 0.66 7 1 C7.33 5.95 7.66 10.9 8 16 C6.35 16 4.7 16 3 16 C2.67 14.68 2.34 13.36 2 12 C-2.455 12.495 -2.455 12.495 -7 13 C-5.35821735 8.22390502 -2.73453298 4.20617096 0 0 Z "
     fill="#F1DEDE"
     transform="translate(175,60)"
     id="path27" />
  <path
     d="M0 0 C1.65 0 3.3 0 5 0 C6.34806927 4.0442078 6.55118687 7.77160933 6 12 C4.4375 14.0625 4.4375 14.0625 2 15 C-1.625 15.3125 -1.625 15.3125 -5 15 C-7.68092691 12.31907309 -7.38670257 10.60832637 -7.625 6.875 C-7.69976562 5.77929688 -7.77453125 4.68359375 -7.8515625 3.5546875 C-7.90054688 2.71164063 -7.94953125 1.86859375 -8 1 C-6.35 1 -4.7 1 -3 1 C-2.67 4.3 -2.34 7.6 -2 11 C-1.01 11 -0.02 11 1 11 C0.67 7.37 0.34 3.74 0 0 Z "
     fill="#F3DEDE"
     transform="translate(96,55)"
     id="path28" />
  <path
     d="M0 0 C-0.625 1.8125 -0.625 1.8125 -2 4 C-2.886875 4.4125 -3.77375 4.825 -4.6875 5.25 C-8.58474226 7.30892044 -10.58220076 9.74798547 -13.2890625 13.16015625 C-15.07384133 15.07940472 -16.60266778 15.98977048 -19 17 C-19 17.66 -19 18.32 -19 19 C-8.77 19 1.46 19 12 19 C12 18.34 12 17.68 12 17 C12.99 17.33 13.98 17.66 15 18 C11.97325996 20.96853351 9.5371452 21.34127964 5.36297607 21.33988953 C4.63991272 21.32440567 3.91684937 21.30892181 3.171875 21.29296875 C2.04836639 21.28660149 2.04836639 21.28660149 0.90216064 21.28010559 C-1.48226375 21.26335746 -3.86583253 21.22571397 -6.25 21.1875 C-7.86977943 21.17244809 -9.48957215 21.15876057 -11.109375 21.14648438 C-15.07324466 21.1134668 -19.03647743 21.06171246 -23 21 C-21.145143 12.21866217 -11.15690737 6.39169266 -4.28515625 1.43359375 C-2 0 -2 0 0 0 Z "
     fill="#9B4341"
     transform="translate(29,73)"
     id="path29" />
  <path
     d="M0 0 C4.29 0 8.58 0 13 0 C12 3 12 3 9.96484375 4.0859375 C6.19774731 5.24733482 2.44817065 5.98122755 -1.4375 6.625 C-2.22431152 6.75688721 -3.01112305 6.88877441 -3.82177734 7.0246582 C-10.92696093 8.13515719 -17.80828918 8.31218037 -25 8 C-24.34 6.35 -23.68 4.7 -23 3 C-19.7 3.66 -16.4 4.32 -13 5 C-13 4.34 -13 3.68 -13 3 C-6.565 2.505 -6.565 2.505 0 2 C0 1.34 0 0.68 0 0 Z "
     fill="#A7C0DF"
     transform="translate(168,195)"
     id="path30" />
  <path
     d="M0 0 C0 1.32 0 2.64 0 4 C-1.32 4.33 -2.64 4.66 -4 5 C-3.175 5.391875 -2.35 5.78375 -1.5 6.1875 C1 8 1 8 1.5 10.5625 C1 13 1 13 -2 15 C-4.26171875 15.1953125 -4.26171875 15.1953125 -6.6875 15.125 C-7.89986328 15.09792969 -7.89986328 15.09792969 -9.13671875 15.0703125 C-10.05904297 15.03550781 -10.05904297 15.03550781 -11 15 C-11 13.68 -11 12.36 -11 11 C-9.35 10.67 -7.7 10.34 -6 10 C-8.475 9.01 -8.475 9.01 -11 8 C-11 6.02 -11 4.04 -11 2 C-7.36576791 -0.32590854 -4.22911669 -0.16265833 0 0 Z "
     fill="#E9CBCA"
     transform="translate(123,53)"
     id="path31" />
  <path
     d="M0 0 C0 4.95 0 9.9 0 15 C-1.65 14.67 -3.3 14.34 -5 14 C-5 12.35 -5 10.7 -5 9 C-7.64 9.33 -10.28 9.66 -13 10 C-13 5.85538869 -12.87848585 5.21483232 -10.4375 2.1875 C-9.96183594 1.56230469 -9.48617187 0.93710938 -8.99609375 0.29296875 C-7 -1 -7 -1 0 0 Z "
     fill="#EAF2F8"
     transform="translate(55,174)"
     id="path32" />
  <path
     d="M0 0 C0 1.32 0 2.64 0 4 C-1.65 4.33 -3.3 4.66 -5 5 C-5 6.32 -5 7.64 -5 9 C-4.34 9.33 -3.68 9.66 -3 10 C-3 9.01 -3 8.02 -3 7 C-1.35 7 0.3 7 2 7 C2 8.98 2 10.96 2 13 C-1.19405084 14.59702542 -4.53271429 14.50343003 -8 14 C-10.6923481 11.81246717 -10.93936827 10.41576045 -11.4375 7 C-11 4 -11 4 -9.4375 1.625 C-6.18317497 -0.54455002 -3.82869586 -0.29451507 0 0 Z "
     fill="#E9F2F9"
     transform="translate(166,184)"
     id="path33" />
  <path
     d="m 0,0 2.3369751,0.01286316 c 2.4557431,0.01675176 4.9106562,0.0543962 7.3661499,0.09260559 1.667957,0.0150514 3.335927,0.028739 5.003906,0.0410156 4.08235,0.0330224 8.164081,0.0847795 12.246094,0.14648437 l -1,2.00000005 -2.07959,-0.015869 c -3.098461,-0.02074 -6.196907,-0.033782 -9.29541,-0.046631 L 11.304688,2.2050781 8.1796875,2.1953125 5.2915039,2.1794434 c -2.361623,-0.042901 -2.361623,-0.042901 -4.3383789,1.1135254 -0.46898963,2.8159848 -0.46898963,2.8159848 -0.625,6.0625 L 0.1015625,12.703125 -0.046875,15.292969 h -1 V 5.2929687 l -2,1 c -0.6577243,3.029345 -0.6577243,3.029345 -1,6.0000003 h -2 L -7.954695,8.8826476 -8.6354406,5.942809 -11.046875,6.2929687 h 2 v -2 l -3,-0.9999999 C -8.4260949,-0.29061157 -4.806245,-0.09989998 0,0 Z"
     fill="#b8cce6"
     transform="translate(218.04687,158.70703)"
     id="path34"
     sodipodi:nodetypes="ccccccccccccccccccccccccccc" />
  <path
     d="M 0,0 6.8150292,1.1320675 6.4252569,4.3844266 3,4 V 7 H 6 L 4.8978891,2.6676515 10,4 11,8 8,9 v 7 L 4,15 V 10 H 2 L 1,13 H -3 C -2.4514465,8.428721 -1.582552,4.325642 0,0 Z"
     fill="#f1f7fb"
     transform="translate(60,177)"
     id="path35"
     sodipodi:nodetypes="ccccccccccccccccc" />
  <path
     d="M0 0 C3.3125 -0.3125 3.3125 -0.3125 7 0 C10.0237939 3.44086892 10.88348496 7.61982562 12 12 C10.35 12 8.7 12 7 12 C7 11.34 7 10.68 7 10 C5.35 10 3.7 10 2 10 C2 10.99 2 11.98 2 13 C0.68 13 -0.64 13 -2 13 C-1.85851011 11.3954444 -1.71164314 9.79136233 -1.5625 8.1875 C-1.48128906 7.29417969 -1.40007812 6.40085938 -1.31640625 5.48046875 C-1 3 -1 3 0 0 Z "
     fill="#EDF3FA"
     transform="translate(142,187)"
     id="path36" />
  <path
     d="M0 0 C3.63 0 7.26 0 11 0 C11 0.99 11 1.98 11 3 C9.02 3 7.04 3 5 3 C5 3.66 5 4.32 5 5 C6.65 5 8.3 5 10 5 C10 5.99 10 6.98 10 8 C8.35 8 6.7 8 5 8 C5 8.66 5 9.32 5 10 C6.98 10 8.96 10 11 10 C11 10.99 11 11.98 11 13 C7.37 13 3.74 13 0 13 C0 8.71 0 4.42 0 0 Z "
     fill="#EDF5FB"
     transform="translate(122,188)"
     id="path37" />
  <path
     d="M0 0 C1.23556641 0.01740234 1.23556641 0.01740234 2.49609375 0.03515625 C3.32238281 0.04417969 4.14867187 0.05320313 5 0.0625 C5.63808594 0.07410156 6.27617187 0.08570313 6.93359375 0.09765625 C6.93359375 1.08765625 6.93359375 2.07765625 6.93359375 3.09765625 C5.28359375 3.09765625 3.63359375 3.09765625 1.93359375 3.09765625 C1.93359375 4.08765625 1.93359375 5.07765625 1.93359375 6.09765625 C3.58359375 6.42765625 5.23359375 6.75765625 6.93359375 7.09765625 C7.55859375 9.47265625 7.55859375 9.47265625 7.93359375 12.09765625 C5.93359375 14.09765625 5.93359375 14.09765625 3.76953125 14.29296875 C2.55136719 14.25816406 2.55136719 14.25816406 1.30859375 14.22265625 C0.49132812 14.20460938 -0.3259375 14.1865625 -1.16796875 14.16796875 C-1.79445312 14.14476563 -2.4209375 14.1215625 -3.06640625 14.09765625 C-3.06640625 13.10765625 -3.06640625 12.11765625 -3.06640625 11.09765625 C-1.08640625 11.09765625 0.89359375 11.09765625 2.93359375 11.09765625 C2.93359375 10.43765625 2.93359375 9.77765625 2.93359375 9.09765625 C2.12921875 8.95328125 1.32484375 8.80890625 0.49609375 8.66015625 C-2.06640625 8.09765625 -2.06640625 8.09765625 -3.06640625 7.09765625 C-3.19140625 4.09765625 -3.19140625 4.09765625 -3.06640625 1.09765625 C-2.06640625 0.09765625 -2.06640625 0.09765625 0 0 Z "
     fill="#F8E9EA"
     transform="translate(137.06640625,53.90234375)"
     id="path38" />
  <path
     d="M0 0 C0 0.99 0 1.98 0 3 C-1.65 3.33 -3.3 3.66 -5 4 C-5 4.66 -5 5.32 -5 6 C-3.02 5.67 -1.04 5.34 1 5 C1 5.99 1 6.98 1 8 C-0.32 8.33 -1.64 8.66 -3 9 C-1.35 9.33 0.3 9.66 2 10 C2 10.66 2 11.32 2 12 C-1.50776784 13.60355101 -4.14354879 14.22036864 -8 14 C-9.29243536 9.8803623 -10.26252625 6.33168317 -10 2 C-6.38026598 0.68373308 -3.90432869 0 0 0 Z "
     fill="#EFF6FB"
     transform="translate(179,181)"
     id="path39" />
  <path
     d="M0 0 C-3 2 -3 2 -6 2 C-6 2.66 -6 3.32 -6 4 C-3.69 4 -1.38 4 1 4 C1 4.33 1 4.66 1 5 C-3.26616316 6.13764351 -6.56486311 7 -11 7 C-10.7834375 7.84304687 -10.566875 8.68609375 -10.34375 9.5546875 C-10.0653125 10.65039062 -9.786875 11.74609375 -9.5 12.875 C-9.2215625 13.96554688 -8.943125 15.05609375 -8.65625 16.1796875 C-8 19 -8 19 -8 21 C-7.34 21.33 -6.68 21.66 -6 22 C-7.32 22 -8.64 22 -10 22 C-11.40454548 15.88019467 -12.23268915 10.28260706 -12 4 C-12.9075 4.350625 -13.815 4.70125 -14.75 5.0625 C-18.00591313 6.00170571 -18.92749994 5.95514676 -22 5 C-5.88616475 -1.80215176 -5.88616475 -1.80215176 0 0 Z "
     fill="#AB5554"
     transform="translate(75,55)"
     id="path40" />
  <path
     d="M0 0 C0.33 0 0.66 0 1 0 C1 13.2 1 26.4 1 40 C5.29 40 9.58 40 14 40 C14.33 38.68 14.66 37.36 15 36 C15.33 37.98 15.66 39.96 16 42 C13.52076199 42.02685095 11.0418116 42.04676547 8.5625 42.0625 C7.85544922 42.07087891 7.14839844 42.07925781 6.41992188 42.08789062 C4.61306441 42.09653588 2.80612397 42.05220011 1 42 C0 41 0 41 -0.11352539 37.12280273 C-0.11336621 35.39305833 -0.10766849 33.66330919 -0.09765625 31.93359375 C-0.0962413 31.02497086 -0.09482635 30.11634796 -0.09336853 29.18019104 C-0.08775193 26.26592779 -0.07519665 23.35174019 -0.0625 20.4375 C-0.05748714 18.46679798 -0.05292386 16.49609476 -0.04882812 14.52539062 C-0.03777711 9.68356441 -0.02050138 4.84179505 0 0 Z "
     fill="#9A9AB9"
     transform="translate(129,97)"
     id="path41" />
  <path
     d="M0 0 C1.65 0 3.3 0 5 0 C5.18451025 10.55808656 5.18451025 10.55808656 4 15 C2.35 14.67 0.7 14.34 -1 14 C-0.67 9.38 -0.34 4.76 0 0 Z "
     fill="#F2DBDA"
     transform="translate(156,56)"
     id="path42" />
  <path
     d="M0 0 C0.99 0 1.98 0 3 0 C3.33 0.66 3.66 1.32 4 2 C6.02463255 2.65213292 6.02463255 2.65213292 8 3 C8 3.66 8 4.32 8 5 C9.32 5.33 10.64 5.66 12 6 C12 5.34 12 4.68 12 4 C15.3 4 18.6 4 22 4 C18.3980295 5.80098525 15.44796365 6.76666757 11.5625 7.6875 C9.89380859 8.09548828 9.89380859 8.09548828 8.19140625 8.51171875 C5.06773194 8.9896371 3.01679028 8.84019019 0 8 C0 5.36 0 2.72 0 0 Z "
     fill="#A34141"
     transform="translate(71,70)"
     id="path43" />
  <path
     d="M0 0 C0.82638376 2.89234315 1 4.88742431 1 8 C4.79588866 7.45773019 6.47211993 5.79872437 9 3 C7.125 7.75 7.125 7.75 6 10 C4.33333333 10.33333333 2.66666667 10.66666667 1 11 C0.67 11.66 0.34 12.32 0 13 C-4.35535069 11.83857315 -6.64619703 10.92300495 -9 7 C-5.535 6.505 -5.535 6.505 -2 6 C-1.34 4.02 -0.68 2.04 0 0 Z "
     fill="#B9CBE1"
     transform="translate(30,168)"
     id="path44" />
  <path
     d="M0 0 C4.75 0.75 4.75 0.75 7 3 C10.60894804 4.70422546 14.05785891 5.4499338 18 6 C18 6.66 18 7.32 18 8 C12.62939417 7.37732106 7.3643858 6.54911583 2.0625 5.5 C-3.61400504 4.40262164 -9.23978097 3.51430527 -15 3 C-15 2.67 -15 2.34 -15 2 C-10.05 2 -5.1 2 0 2 C0 1.34 0 0.68 0 0 Z "
     fill="#A95352"
     transform="translate(155,70)"
     id="path45" />
  <path
     d="M0 0 C0.66 0.33 1.32 0.66 2 1 C1.34 1.804375 0.68 2.60875 0 3.4375 C-2.10254514 5.58961915 -2.10254514 5.58961915 -2 7 C-7.28 7 -12.56 7 -18 7 C-18 6.67 -18 6.34 -18 6 C-24.93 5.67 -31.86 5.34 -39 5 C-38.67 4.01 -38.34 3.02 -38 2 C-38 2.66 -38 3.32 -38 4 C-33.2306059 3.93107152 -28.46208424 3.84308144 -23.69335938 3.73754883 C-22.07171314 3.70433165 -20.44995219 3.67628965 -18.828125 3.65356445 C-16.49429523 3.61995845 -14.16151365 3.5676424 -11.828125 3.51171875 C-10.74352997 3.50213387 -10.74352997 3.50213387 -9.63702393 3.49235535 C-5.49606888 3.37188752 -3.01382388 2.92859131 0 0 Z "
     fill="#E0C0C8"
     transform="translate(44,90)"
     id="path46" />
  <path
     d="M0 0 C2.97 0 5.94 0 9 0 C9.495 1.485 9.495 1.485 10 3 C-6.17 3.33 -22.34 3.66 -39 4 C-39 3.67 -39 3.34 -39 3 C-30.63920602 1.99527468 -22.28752587 1.69204567 -13.875 1.4375 C-12.52342758 1.39418869 -11.17186494 1.35057098 -9.8203125 1.30664062 C-6.54695806 1.20142566 -3.27353875 1.09928521 0 1 C0 0.67 0 0.34 0 0 Z "
     fill="#953231"
     transform="translate(134,69)"
     id="path47" />
  <path
     d="M0 0 C1.65 0 3.3 0 5 0 C4.67 4.29 4.34 8.58 4 13 C2.35 13 0.7 13 -1 13 C-1.07654536 8.48382401 -1.10228696 4.40914783 0 0 Z "
     fill="#ECF5FA"
     transform="translate(95,186)"
     id="path48" />
  <path
     d="M0 0 C0.33 0 0.66 0 1 0 C1.06058594 0.98742187 1.12117188 1.97484375 1.18359375 2.9921875 C1.26738281 4.27351562 1.35117188 5.55484375 1.4375 6.875 C1.51871094 8.15117187 1.59992188 9.42734375 1.68359375 10.7421875 C1.79206027 13.88300152 1.79206027 13.88300152 3 16 C5.71446979 16.31241455 8.33909361 16.51336592 11.0625 16.625 C11.82111328 16.66367188 12.57972656 16.70234375 13.36132812 16.7421875 C15.24047195 16.83673562 17.12020336 16.91946756 19 17 C19 17.33 19 17.66 19 18 C10.09 18 1.18 18 -8 18 C-7.34 16.68 -6.68 15.36 -6 14 C-4.02 13.67 -2.04 13.34 0 13 C0 8.71 0 4.42 0 0 Z "
     fill="#BED0E7"
     transform="translate(121,188)"
     id="path49" />
  <path
     d="M0 0 C-0.625 1.8125 -0.625 1.8125 -2 4 C-2.886875 4.4125 -3.77375 4.825 -4.6875 5.25 C-9.21342891 7.64105678 -11.78673641 11.09936302 -15 15 C-15.66 15.66 -16.32 16.32 -17 17 C-19.125 16.625 -19.125 16.625 -21 16 C-6.14893617 0 -6.14893617 0 0 0 Z "
     fill="#A74848"
     transform="translate(29,73)"
     id="path50" />
  <path
     d="M0 0 C0.50757862 1.41396902 1.00574925 2.83131729 1.5 4.25 C1.7784375 5.03890625 2.056875 5.8278125 2.34375 6.640625 C3 9 3 9 3 13 C1.35 12.67 -0.3 12.34 -2 12 C-2 9.03 -2 6.06 -2 3 C-3.65 3.33 -5.3 3.66 -7 4 C-7.33 3.01 -7.66 2.02 -8 1 C-5.07175348 0.02391783 -3.04386724 -0.08226668 0 0 Z "
     fill="#FBEEEF"
     transform="translate(76,60)"
     id="path51" />
  <path
     d="M0 0 C1.65 0 3.3 0 5 0 C4.34 4.29 3.68 8.58 3 13 C1.35 13 -0.3 13 -2 13 C-1.39174965 8.65535464 -0.73832608 4.32448133 0 0 Z "
     fill="#EDF5FB"
     id="path52"
     transform="translate(73,182)" />
  <path
     d="M0 0 C0.33 0 0.66 0 1 0 C1.125 7.75 1.125 7.75 0 10 C1.32 10.33 2.64 10.66 4 11 C2.02 11.99 2.02 11.99 0 13 C5.94 14.485 5.94 14.485 12 16 C12 16.33 12 16.66 12 17 C5.90271584 16.58395002 -0.06599869 15.71250413 -6.0625 14.5625 C-7.35285156 14.31628906 -8.64320312 14.07007813 -9.97265625 13.81640625 C-10.97167969 13.54699219 -11.97070312 13.27757812 -13 13 C-13.33 12.34 -13.66 11.68 -14 11 C-8.06 11.99 -8.06 11.99 -2 13 C-1.855625 11.96875 -1.71125 10.9375 -1.5625 9.875 C-1.08339543 6.57450187 -0.56124917 3.28731659 0 0 Z "
     fill="#D7E4F1"
     transform="translate(83,187)"
     id="path53" />
  <path
     d="M0 0 C1.65 0 3.3 0 5 0 C5 3.63 5 7.26 5 11 C5.99 11 6.98 11 8 11 C8 11.66 8 12.32 8 13 C5.69 12.67 3.38 12.34 1 12 C0.67 8.04 0.34 4.08 0 0 Z "
     fill="#F7E8E7"
     transform="translate(88,56)"
     id="path54" />
  <path
     d="M0 0 C0.66 1.32 1.32 2.64 2 4 C1.01 4.495 1.01 4.495 0 5 C0 4.01 0 3.02 0 2 C-1.65 2 -3.3 2 -5 2 C-4.67 5.63 -4.34 9.26 -4 13 C-4.99 13 -5.98 13 -7 13 C-7.33 9.7 -7.66 6.4 -8 3 C-9.32 2.67 -10.64 2.34 -12 2 C-7.8803623 0.70756464 -4.33168317 -0.26252625 0 0 Z "
     fill="#A85050"
     transform="translate(101,53)"
     id="path55" />
  <path
     d="M0 0 C1 2 1 2 0.25 4.375 C-1 7 -1 7 -2.5625 8.8125 C-4.70191214 12.06812717 -4.62056058 15.14236585 -5 19 C-5.33 19.33 -5.66 19.66 -6 20 C-6.23192865 21.51469448 -6.41215238 23.03754562 -6.5625 24.5625 C-6.64628906 25.38878906 -6.73007813 26.21507812 -6.81640625 27.06640625 C-6.87699219 27.70449219 -6.93757812 28.34257812 -7 29 C-7.33 29 -7.66 29 -8 29 C-8.54393779 18.51408823 -7.98485289 10.5345179 -1.75 1.875 C-1.1725 1.25625 -0.595 0.6375 0 0 Z "
     fill="#51528C"
     transform="translate(151,104)"
     id="path56" />
  <path
     d="M0 0 C1.23556641 0.01740234 1.23556641 0.01740234 2.49609375 0.03515625 C3.32238281 0.04417969 4.14867188 0.05320313 5 0.0625 C5.63808594 0.07410156 6.27617188 0.08570313 6.93359375 0.09765625 C6.93359375 0.75765625 6.93359375 1.41765625 6.93359375 2.09765625 C5.28359375 2.09765625 3.63359375 2.09765625 1.93359375 2.09765625 C2.59359375 4.07765625 3.25359375 6.05765625 3.93359375 8.09765625 C1.93404629 8.14019981 -0.06682261 8.13846408 -2.06640625 8.09765625 C-3.06640625 7.09765625 -3.06640625 7.09765625 -3.19140625 4.09765625 C-3.02663038 0.14303546 -3.02663038 0.14303546 0 0 Z "
     fill="#F6E5E3"
     transform="translate(115.06640625,53.90234375)"
     id="path57" />
  <path
     d="M0 0 C0.33 0.99 0.66 1.98 1 3 C2.32 3 3.64 3 5 3 C5 2.34 5 1.68 5 1 C6.875 1.1875 6.875 1.1875 9 2 C10.25 4.5625 10.25 4.5625 11 7 C9.35 7 7.7 7 6 7 C6 6.34 6 5.68 6 5 C4.35 5 2.7 5 1 5 C1 5.99 1 6.98 1 8 C0.01 8 -0.98 8 -2 8 C-1.125 1.125 -1.125 1.125 0 0 Z "
     fill="#F6FAFD"
     transform="translate(143,192)"
     id="path58" />
  <path
     d="M0 0 C0.99386719 0.00902344 1.98773438 0.01804687 3.01171875 0.02734375 C4.15060547 0.04474609 4.15060547 0.04474609 5.3125 0.0625 C5.6425 0.7225 5.9725 1.3825 6.3125 2.0625 C-2.1025 2.5575 -2.1025 2.5575 -10.6875 3.0625 C-11.3475 4.3825 -12.0075 5.7025 -12.6875 7.0625 C-14.8125 8.3125 -14.8125 8.3125 -16.6875 9.0625 C-16.625 7.3125 -16.625 7.3125 -15.6875 5.0625 C-10.7509493 1.42036619 -6.12609981 -0.07207176 0 0 Z "
     fill="#53538E"
     transform="translate(170.6875,94.9375)"
     id="path59" />
  <path
     d="M0 0 C5.61 0.66 11.22 1.32 17 2 C17 2.33 17 2.66 17 3 C14.36 3 11.72 3 9 3 C9 6.63 9 10.26 9 14 C8.67 14 8.34 14 8 14 C8 11.36 8 8.72 8 6 C6.35 6 4.7 6 3 6 C3 5.34 3 4.68 3 4 C3.99 3.67 4.98 3.34 6 3 C4.02 2.34 2.04 1.68 0 1 C0 0.67 0 0.34 0 0 Z "
     fill="#AC5352"
     transform="translate(153,50)"
     id="path60" />
  <path
     d="M0 0 C1.65 0 3.3 0 5 0 C4.67 0.66 4.34 1.32 4 2 C3.01 1.67 2.02 1.34 1 1 C0.67 2.32 0.34 3.64 0 5 C-1.65 4.67 -3.3 4.34 -5 4 C-4.67 3.34 -4.34 2.68 -4 2 C-2.02 2.495 -2.02 2.495 0 3 C0 2.01 0 1.02 0 0 Z M-3 5 C4.26 5 11.52 5 19 5 C19 5.33 19 5.66 19 6 C14.26120232 7.14850697 9.53708638 7.32901557 4.6875 7.5625 C3.85154297 7.60568359 3.01558594 7.64886719 2.15429688 7.69335938 C0.10303065 7.79885307 -1.9484648 7.89987315 -4 8 C-3.67 7.01 -3.34 6.02 -3 5 Z "
     fill="#BED1E6"
     transform="translate(144,197)"
     id="path61" />
  <path
     d="M0 0 C-10.89 4.455 -10.89 4.455 -22 9 C-20.72373252 5.17119756 -19.52527895 4.81886792 -16 3 C-14.00192567 2.19131814 -11.97902602 1.44169276 -9.9375 0.75 C-8.40416016 0.21632813 -8.40416016 0.21632813 -6.83984375 -0.328125 C-4 -1 -4 -1 0 0 Z "
     fill="#9E3A3A"
     transform="translate(67,81)"
     id="path62" />
  <path
     d="M0 0 C0 1.98 0 3.96 0 6 C-0.66 4.68 -1.32 3.36 -2 2 C-2.79664062 2.28875 -3.59328125 2.5775 -4.4140625 2.875 C-5.47367188 3.24625 -6.53328125 3.6175 -7.625 4 C-8.66914062 4.37125 -9.71328125 4.7425 -10.7890625 5.125 C-14.01774506 6.00483564 -16.67244294 6.15988262 -20 6 C-14.016259 2.01083933 -7.17023155 0 0 0 Z "
     fill="#9E2E2C"
     transform="translate(63,59)"
     id="path63" />
  <path
     d="M0 0 C0.33 0.99 0.66 1.98 1 3 C2.65 2.67 4.3 2.34 6 2 C6 2.66 6 3.32 6 4 C5.34 4.66 4.68 5.32 4 6 C4.99 7.485 4.99 7.485 6 9 C3.69 8.67 1.38 8.34 -1 8 C-1.33 7.01 -1.66 6.02 -2 5 C-1.34 5 -0.68 5 0 5 C0 3.35 0 1.7 0 0 Z "
     fill="#BBCEE6"
     transform="translate(56,187)"
     id="path64" />
  <path
     d="M0 0 C2 3 2 3 2 6 C-2.95 6 -7.9 6 -13 6 C-13 5.34 -13 4.68 -13 4 C-8.71 4 -4.42 4 0 4 C0 2.68 0 1.36 0 0 Z "
     fill="#BFC0DE"
     transform="translate(143,133)"
     id="path65" />
  <path
     d="M0 0 C2.0357824 4.07156479 3.12165065 6.51124928 3.0625 11.125 C3.05347656 12.03507812 3.04445312 12.94515625 3.03515625 13.8828125 C3.02355469 14.58148438 3.01195312 15.28015625 3 16 C1.68 15.67 0.36 15.34 -1 15 C-0.34 15 0.32 15 1 15 C0.835 14.01 0.67 13.02 0.5 12 C-0.08474517 7.97267058 -0.07132024 4.06525377 0 0 Z "
     fill="#AE5755"
     transform="translate(182,61)"
     id="path66" />
  <path
     d="M0 0 C0.66 0.33 1.32 0.66 2 1 C1.95875 1.9075 1.9175 2.815 1.875 3.75 C1.99531556 6.8782046 2.3914708 8.38614006 4 11 C3.01 11 2.02 11 1 11 C1 11.66 1 12.32 1 13 C-0.98 13 -2.96 13 -5 13 C-5 12.67 -5 12.34 -5 12 C-3.35 12 -1.7 12 0 12 C-0.66 10.35 -1.32 8.7 -2 7 C-1.34 7 -0.68 7 0 7 C0 4.69 0 2.38 0 0 Z "
     fill="#B7CBE4"
     transform="translate(154,187)"
     id="path67" />
  <path
     d="M0 0 C2.875 -0.125 2.875 -0.125 6 0 C6.66 0.66 7.32 1.32 8 2 C7.67 2.99 7.34 3.98 7 5 C5.68 4.34 4.36 3.68 3 3 C3 4.32 3 5.64 3 7 C2.01 7 1.02 7 0 7 C0 6.01 0 5.02 0 4 C0.66 4 1.32 4 2 4 C2 3.01 2 2.02 2 1 C1.34 0.67 0.68 0.34 0 0 Z "
     fill="#C1D0E2"
     transform="translate(63,177)"
     id="path68" />
  <path
     d="M0 0 C0.99 0.33 1.98 0.66 3 1 C3 2.98 3 4.96 3 7 C4.98 7.66 6.96 8.32 9 9 C9 9.33 9 9.66 9 10 C6.69 10 4.38 10 2 10 C1.67 11.32 1.34 12.64 1 14 C0.67 9.38 0.34 4.76 0 0 Z "
     fill="#9A4242"
     transform="translate(110,54)"
     id="path69" />
  <path
     d="m -2.1798096,1.6849742 4.4030839,-5.330219 c 0.018892,0.8690236 4.3626146,-0.3218633 4.3663849,0.2890373 C 6.5960135,-2.3266384 6.9289003,7.438431 6.3674963,8.2369226 5.9205021,8.8726878 3.4534591,9.2722406 2.6664835,7.2849162 2.1055058,5.8682973 3.2149277,1.8375422 2.8113049,2.175239 2.1222748,2.751726 1.3472463,3.2047966 1.0696112,3.7600669 L -1.2775233,7.3563317 -3.691636,7.5368988 -6.8159078,1.649939 -7.3170533,7.6128126 -9.5517785,7.4152078 l 0.099791,-11.0745706 3.3983647,-0.068482 z"
     fill="#f6fafc"
     transform="translate(112,192)"
     id="path70"
     sodipodi:nodetypes="ccssssccccccccc" />
  <path
     d="M0 0 C1 2 1 2 0.25 4.375 C-0.95138534 6.89790922 -2.14521899 8.91337136 -4 11 C-4.66 11 -5.32 11 -6 11 C-4.74194623 6.49197399 -3.09592835 3.5087188 0 0 Z "
     fill="#4A4B88"
     transform="translate(151,104)"
     id="path72" />
  <path
     d="M0 0 C1.5843317 0.08768248 3.16753567 0.19587329 4.75 0.3125 C6.07257813 0.39951172 6.07257813 0.39951172 7.421875 0.48828125 C10.32303774 1.0641181 11.79225607 2.07596148 14 4 C10.22134307 5.25955231 8.96588214 4.48087189 5.3125 3.0625 C4.31863281 2.68222656 3.32476562 2.30195312 2.30078125 1.91015625 C1.54152344 1.60980469 0.78226563 1.30945313 0 1 C0 0.67 0 0.34 0 0 Z "
     fill="#B26363"
     transform="translate(186,82)"
     id="path73" />
  <path
     d="M0 0 C-1.09462676 3.1744176 -1.98177335 3.98914157 -4.9375 5.75 C-8 7 -8 7 -11 7 C-9.87720538 6.01830524 -8.75168527 5.03972702 -7.625 4.0625 C-6.68527344 3.24458984 -6.68527344 3.24458984 -5.7265625 2.41015625 C-3.71547429 0.76761588 -2.62199195 0 0 0 Z "
     fill="#AC5D5B"
     transform="translate(29,73)"
     id="path74" />
  <path
     d="M0 0 C0.33 0 0.66 0 1 0 C1.2475 0.969375 1.495 1.93875 1.75 2.9375 C2.1625 3.948125 2.575 4.95875 3 6 C5.03243548 6.96877057 5.03243548 6.96877057 7 7 C7 7.66 7 8.32 7 9 C5.02 9 3.04 9 1 9 C0.67 9.99 0.34 10.98 0 12 C0 8.04 0 4.08 0 0 Z "
     fill="#AD6766"
     transform="translate(133,56)"
     id="path75" />
  <path
     d="M0 0 C1.60433809 0.47859241 3.20846416 0.95789558 4.8125 1.4375 C6.15248047 1.83775391 6.15248047 1.83775391 7.51953125 2.24609375 C9.35473055 2.80387873 11.18033726 3.39344575 13 4 C12.67 4.66 12.34 5.32 12 6 C2.40546697 4.25740319 2.40546697 4.25740319 -1 1 C-0.67 0.67 -0.34 0.34 0 0 Z "
     fill="#9D3C3B"
     transform="translate(188,58)"
     id="path76" />
  <path
     d="M0 0 C0.33 0 0.66 0 1 0 C1.125 7.75 1.125 7.75 0 10 C1.32 10.33 2.64 10.66 4 11 C2 12 0 13 -2 14 C-1.43393721 9.30976546 -0.81462495 4.65499974 0 0 Z "
     fill="#C3D4E9"
     transform="translate(83,187)"
     id="path77" />
  <path
     d="m 83.588428,186.1665 c 1.65,0 3.3,0 5,0 -0.66,4.29 -1.32,8.58 -2,13 -1.65,0 -3.3,0 -5,0 0.60825,-4.34465 1.261674,-8.67552 2,-13 z"
     fill="#edf5fb"
     id="path52-3" />
  <path
     d="m 80.076397,187.07678 c 0.06393,-1.51455 0.127852,-3.02911 0.193722,-4.58956 4.130925,0.76328 8.261849,1.52657 12.517952,2.313 -0.06393,1.51456 -0.127852,3.02911 -0.19372,4.58956 -4.18588,-0.7178 -8.356658,-1.47655 -12.517954,-2.313 z"
     fill="#edf5fb"
     id="path52-3-6"
     style="stroke-width:0.943805" />
  <path
     d="M0 0 C0.66 0 1.32 0 2 0 C2.1875 2.375 2.1875 2.375 2 5 C-1.31371 7.20914 -2.3446021 7.22481553 -6.1875 7.125 C-7.08855469 7.10695313 -7.98960937 7.08890625 -8.91796875 7.0703125 C-9.60503906 7.04710938 -10.29210937 7.02390625 -11 7 C-11 6.67 -11 6.34 -11 6 C-6.545 5.505 -6.545 5.505 -2 5 C-1.34 3.35 -0.68 1.7 0 0 Z "
     fill="#BA6364"
     transform="translate(145,62)"
     id="path78" />
  <path
     d="M0 0 C2.31 0 4.62 0 7 0 C7 1.65 7 3.3 7 5 C5.68 4.67 4.36 4.34 3 4 C3 3.01 3 2.02 3 1 C2.34 1 1.68 1 1 1 C0.67 1.66 0.34 2.32 0 3 C0 2.01 0 1.02 0 0 Z "
     fill="#EFF6FA"
     transform="translate(142,187)"
     id="path79" />
  <path
     d="M0 0 C0.33 0.66 0.66 1.32 1 2 C1.99 2.33 2.98 2.66 4 3 C2.35 4.65 0.7 6.3 -1 8 C-1.99 7.34 -2.98 6.68 -4 6 C-3.34 6 -2.68 6 -2 6 C-1.34 4.02 -0.68 2.04 0 0 Z "
     fill="#B8C9E1"
     transform="translate(41,175)"
     id="path80" />
  <path
     d="M0 0 C3.16130459 4.21507278 3.3367697 5.06071112 3 10 C2.01 10 1.02 10 0 10 C0 6.7 0 3.4 0 0 Z "
     fill="#9B4B49"
     transform="translate(94,56)"
     id="path81" />
  <path
     d="M0 0 C-0.99 0.33 -1.98 0.66 -3 1 C-2.67 3.31 -2.34 5.62 -2 8 C-4.27521866 5.83312509 -6.15794162 3.54379491 -8 1 C-5.07175348 0.02391783 -3.04386724 -0.08226668 0 0 Z "
     fill="#CAD6E8"
     transform="translate(194,176)"
     id="path82" />
  <path
     d="M0 0 C3.63 0 7.26 0 11 0 C11.33 0.99 11.66 1.98 12 3 C12.66 3.33 13.32 3.66 14 4 C11 4 11 4 8 2 C5.9507906 1.54860541 5.9507906 1.54860541 3.8125 1.375 C1.9253125 1.189375 1.9253125 1.189375 0 1 C0 0.67 0 0.34 0 0 Z "
     fill="#64649B"
     transform="translate(167,113)"
     id="path83" />
  <path
     d="M0 0 C-1.6232687 0.6708712 -3.24867578 1.33657029 -4.875 2 C-6.23238281 2.556875 -6.23238281 2.556875 -7.6171875 3.125 C-10 4 -10 4 -12 4 C-12 3.34 -12 2.68 -12 2 C-10.75579353 1.4654744 -9.50429064 0.94791389 -8.25 0.4375 C-7.55390625 0.14746094 -6.8578125 -0.14257812 -6.140625 -0.44140625 C-3.69987216 -1.07831803 -2.3596345 -0.80248831 0 0 Z "
     fill="#A24543"
     transform="translate(67,81)"
     id="path84" />
  <path
     d="M0 0 C2.97 0 5.94 0 9 0 C9 0.99 9 1.98 9 3 C6.33333333 3 3.66666667 3 1 3 C0.01 3.495 0.01 3.495 -1 4 C-0.67 2.68 -0.34 1.36 0 0 Z "
     fill="#F8DCDC"
     transform="translate(135,54)"
     id="path85" />
  <path
     d="M0 0 C0.99 0.99 1.98 1.98 3 3 C2.67 3.66 2.34 4.32 2 5 C1.01 4.67 0.02 4.34 -1 4 C-1 4.66 -1 5.32 -1 6 C-1.99 6 -2.98 6 -4 6 C-4 4.68 -4 3.36 -4 2 C-2.68 2.33 -1.36 2.66 0 3 C0 2.01 0 1.02 0 0 Z "
     fill="#E1E8EE"
     transform="translate(149,189)"
     id="path86" />
  <path
     d="M0 0 C3.3 0 6.6 0 10 0 C5.60171741 2.1991413 2.81449408 2.51855059 -2 3 C-1.34 2.67 -0.68 2.34 0 2 C0 1.34 0 0.68 0 0 Z "
     fill="#AB5B5B"
     transform="translate(83,74)"
     id="path87" />
  <path
     d="M0 0 C4.29 0 8.58 0 13 0 C13 0.33 13 0.66 13 1 C12.31292969 1.04898438 11.62585937 1.09796875 10.91796875 1.1484375 C9.56638672 1.26058594 9.56638672 1.26058594 8.1875 1.375 C7.29417969 1.44460937 6.40085937 1.51421875 5.48046875 1.5859375 C2.75601501 1.86645036 2.75601501 1.86645036 0 4 C0 2.68 0 1.36 0 0 Z "
     fill="#232572"
     transform="translate(4,98)"
     id="path88" />
  <path
     d="M0 0 C2.62386487 3.06117568 3 3.73173127 3 8 C1.35 7.67 -0.3 7.34 -2 7 C-1.01 6.67 -0.02 6.34 1 6 C0.67 4.02 0.34 2.04 0 0 Z "
     fill="#EFD5D5"
     transform="translate(76,65)"
     id="path89" />
  <path
     d="M0 0 C0.66 0.33 1.32 0.66 2 1 C1.67 1.66 1.34 2.32 1 3 C-1.06640625 3.4140625 -1.06640625 3.4140625 -3.5625 3.625 C-4.38878906 3.69976562 -5.21507812 3.77453125 -6.06640625 3.8515625 C-7.02353516 3.92503906 -7.02353516 3.92503906 -8 4 C-5.31143836 2.20762558 -3.0466145 1.01553817 0 0 Z "
     fill="#A55151"
     transform="translate(51,61)"
     id="path90" />
  <path
     d="M0 0 C0.99 0 1.98 0 3 0 C3.33 0.66 3.66 1.32 4 2 C6.01669827 3.13350534 6.01669827 3.13350534 8 4 C5.69 3.67 3.38 3.34 1 3 C0.67 3.66 0.34 4.32 0 5 C0 3.35 0 1.7 0 0 Z "
     fill="#B26E6D"
     transform="translate(71,70)"
     id="path91" />
  <path
     d="M0 0 C1.98 0.495 1.98 0.495 4 1 C2.625 3 2.625 3 1 5 C0.34 5 -0.32 5 -1 5 C-0.67 3.35 -0.34 1.7 0 0 Z "
     fill="#BD9695"
     transform="translate(70,63)"
     id="path92" />
  <path
     d="M0 0 C0.33 0 0.66 0 1 0 C1 2.31 1 4.62 1 7 C-0.98 6.01 -2.96 5.02 -5 4 C-5 3.67 -5 3.34 -5 3 C-3.35 3 -1.7 3 0 3 C0 2.01 0 1.02 0 0 Z "
     fill="#A14F50"
     transform="translate(123,54)"
     id="path93" />
</svg>
