<?xml version="1.0" encoding="UTF-8" standalone="no"?>
<svg width="2000" height="40" viewBox="0 0 2000 40" version="1.1" id="svg1"
   xmlns="http://www.w3.org/2000/svg" xmlns:svg="http://www.w3.org/2000/svg">
   <defs id="defs1" />
   <g id="layer1">
      <path id="rect1" style="fill:#aabcc5;stroke-width:0;stroke-linecap:round;paint-order:markers fill stroke"
         d="M -6.2189074,9.7665978 C 15.912115,9.7665978 17.17558,27.817587 57.607475,27.69608 79.306349,27.63087 93.921598,15.297 126.93689,15.297 c 37.60207,0 126.42104,11.970128 147.59077,11.970128 55.17964,0 92.84961,-15.603936 146.85483,-15.689479 68.65048,-0.108741 130.01256,17.951191 203.39797,18.092439 20.94459,0.04031 130.2024,-6.456127 165.96165,-6.456127 34.25504,0 95.10286,9.822438 129.70831,9.883699 37.37884,0.06617 100.55228,-25.1184515 136.72038,-25.150416 53.9319,-0.047664 115.8032,21.266027 166.2412,21.448571 49.8882,0.180555 100.3268,-9.797361 146.2706,-9.851938 38.2557,-0.04544 80.7268,9.497724 116.0196,9.491644 36.2844,-0.0062 72.1286,2.935363 106.0525,0.0612 25.6828,-2.175946 82.0893,-13.69548 104.9295,-13.69548 45.5172,0 49.2544,16.847103 160.7648,16.847103 75.2282,0 78.2709,-41.3787113 147.9316,-24.3962933 0,9.0529543 -0.058,32.3376693 -0.058,32.3376693 H -6.2189074 c 0,0 -0.1058612,-20.282634 0,-30.4231222 z" />
   </g>
</svg>